<?xml version="1.0" encoding="utf-8"?>
<!-- Generator: Adobe Illustrator 27.7.0, SVG Export Plug-In . SVG Version: 6.00 Build 0)  -->
<svg version="1.1" id="Layer_2_00000085949047597818967660000007917956568219831454_"
	 xmlns="http://www.w3.org/2000/svg" xmlns:xlink="http://www.w3.org/1999/xlink" x="0px" y="0px" viewBox="0 0 297.7 331"
	 style="enable-background:new 0 0 297.7 331;" xml:space="preserve">
<style type="text/css">
	.st0{fill:#FFFFFF;}
</style>
<g id="Camada_1_00000135681608695432230330000005099074089959870633_">
	<path class="st0" d="M297.6,166c0,81.2-66.8,147.3-148.6,147.3S0.4,247.2,0.4,166S67.2,18.7,149,18.7S297.6,84.8,297.6,166"/>
	<g>
		<path d="M124.1,151.6l-17.7,79.9c-1.3,7.2,3.9,14.4,11.1,14.4h62.8c7.2,0,13.1-7.2,11.1-14.4l-17.7-79.9H124.1L124.1,151.6z"/>
		<path d="M180.4,86.1V96c0,2.6-2,4.6-4.6,4.6h-11.1c-2.6,0-4.6-2-4.6-4.6v-9.8h-23.6V96c0,2.6-2,4.6-4.6,4.6h-11.1
			c-2.6,0-4.6-2-4.6-4.6v-9.8H98.6V130c0,2,1.3,4.6,2.6,5.9l15.1,11.1h62.8l15.1-11.1c2-1.3,2.6-3.3,2.6-5.9V86.1H180.4L180.4,86.1z
			"/>
	</g>
</g>
</svg>
