<?xml version="1.0" encoding="utf-8"?>
<!-- Generator: Adobe Illustrator 28.0.0, SVG Export Plug-In . SVG Version: 6.00 Build 0)  -->
<svg version="1.1" id="Layer_1" xmlns="http://www.w3.org/2000/svg" xmlns:xlink="http://www.w3.org/1999/xlink" x="0px" y="0px"
	 viewBox="0 0 275 35" style="enable-background:new 0 0 275 35;" xml:space="preserve">
<style type="text/css">
	.st0{fill:#B29220;}
</style>
<path class="st0" d="M22.8,30l0.4,0.4c-2.3,2.6-5.4,4.6-10,4.6C5.5,35,0,28.7,0,21.2C0,13.6,6.1,7.3,13.2,7.3c2.3,0,4.7,0.4,6.8,0.8
	l1.1,4h-0.3c-2.4-3.4-6.2-4.8-9.8-4.1c-6.1,1.2-9,8-7.9,14.9c1,6.1,5.2,12,12.4,11C18.4,33.6,20.9,32.2,22.8,30z M36.9,7.3
	c7.1,0,13,6.3,13,13.8c0,7.5-5.9,13.8-13,13.8s-13-6.3-13-13.8C24,13.6,29.9,7.3,36.9,7.3z M39.1,34.2c6.1-1.1,8.8-8,7.7-14.9
	c-1.1-6.9-5.9-12.4-12-11.2c-6.2,1.1-8.8,8-7.7,14.9C28.3,29.9,32.9,35.4,39.1,34.2z M78.9,8.2l-1.2,1v23.9l1.2,1v0.3h-5.2v-0.3
	l1.2-1V9.2l-9.6,25.3h-1l-10-23.9v22.1l2.4,1.5v0.3h-5.2v-0.3l2.4-1.5v-23l-1.9-1.5V7.9h4.3L66,31.2l8.9-23.4h4V8.2z M89.4,7.9
	c5.2,0,10.7,2.2,10.7,8.1s-5.4,8.1-10.7,8.1h-4.2v9l1.2,1v0.3h-5.2v-0.3l1.2-1V9.2l-1.2-1V7.9H89.4z M89.4,23.6
	c4.8,0,7.6-2.9,7.6-7.6s-2.9-7.6-7.6-7.6h-4.2v15.3H89.4z M120.5,32.6l1.8,1.5v0.3h-5.9v-0.3l1-1.1l-5.7-9c-0.5,0-0.9,0.1-1.3,0.1
	h-4v9l1.2,1v0.3h-5.2v-0.3l1.2-1V9.2l-1.2-1V7.9h8.2c5.2,0,10.7,2.2,10.7,8.1c0,3.8-3,6.3-6.6,7.4L120.5,32.6z M106.4,23.6h4
	c4.8,0,7.9-2.9,7.9-7.6s-2.9-7.6-7.6-7.6h-4.2V23.6z M136.4,7.3c7.1,0,13,6.3,13,13.8c0,7.5-5.9,13.8-13,13.8c-7.1,0-13-6.3-13-13.8
	C123.5,13.6,129.4,7.3,136.4,7.3z M138.6,34.2c6.1-1.1,8.8-8,7.7-14.9c-1.1-6.9-5.9-12.4-12-11.2c-6.2,1.1-8.8,8-7.7,14.9
	C127.8,29.9,132.4,35.4,138.6,34.2z M178.4,8.2l-1.2,1v23.9l1.2,1v0.3h-5.2v-0.3l1.2-1V9.2l-9.6,25.3h-1l-10-23.9v22.1l2.4,1.5v0.3
	h-5.2v-0.3l2.4-1.5v-23l-1.9-1.5V7.9h4.3l9.8,23.4l8.9-23.4h4V8.2z M198,30.3h0.3l-0.8,4.2h-16.8v-0.3l1.2-1V9.2l-1.2-1V7.9h16
	l0.8,4.1h-0.3l-2.7-3.7h-9.8v9.8h7.2l1.3-1.9h0.3v4.3h-0.3l-1.3-1.9h-7.2V34h10.6L198,30.3z M217.7,7.9l0.8,4.2h-0.3l-2.7-3.7h-5.7
	v24.8l1.2,1v0.3h-5.3v-0.3l1.2-1V8.3h-5.7l-2.7,3.7h-0.3l0.8-4.2H217.7z M225.7,8.2l-1.2,1v23.9l1.2,1v0.3h-5.2v-0.3l1.2-1V9.2
	l-1.2-1V7.9h5.2V8.2z M235.5,7.9c10.6,0,15.4,6,15.4,13.3s-4.8,13.3-15.4,13.3H228v-0.3l1.2-1V9.2l-1.2-1V7.9H235.5z M235.5,34
	c7.8,0,12.3-5.1,12.3-12.8s-4.5-12.8-12.3-12.8h-3.4V34H235.5z M272,32.8l2,1.3v0.3h-6.3v-0.3l1.4-1.1l-3.5-9.1h-9.8l-3.3,8.7
	l1.9,1.5v0.3h-5.1v-0.3l2.7-1.6l8.4-21.9l-1.1-2.8h3L272,32.8z M255.9,23.5h9.4l-4.7-12.2L255.9,23.5z"/>
</svg>
