<?xml version="1.0" encoding="UTF-8"?><svg id="Layer_1" xmlns="http://www.w3.org/2000/svg" viewBox="0 0 286.61 45.95"><defs><style>.cls-1{fill:#b29220;stroke-width:0px;}</style></defs><path class="cls-1" d="m25.81,31.84c-2.42,2.78-5.77,4.92-10.65,4.92-8.11,0-13.95-6.73-13.95-14.68S7.7,7.4,15.2,7.4c2.46,0,4.96.44,7.22.89l1.21,4.27h-.36c-2.54-3.59-6.57-5.12-10.36-4.36-6.49,1.29-9.56,8.47-8.35,15.81,1.05,6.45,5.57,12.78,13.15,11.69,3.06-.44,5.65-1.98,7.66-4.27l.44.4Z"/><path class="cls-1" d="m54.12,22.08c0,7.94-6.25,14.68-13.75,14.68s-13.75-6.73-13.75-14.68,6.25-14.68,13.75-14.68,13.75,6.69,13.75,14.68Zm-3.31-1.94c-1.21-7.34-6.21-13.15-12.7-11.94-6.53,1.21-9.36,8.47-8.15,15.81s6.17,13.15,12.7,11.94c6.49-1.21,9.32-8.47,8.15-15.81Z"/><path class="cls-1" d="m83.6,9.42v25.33l1.29,1.09v.36h-5.57v-.36l1.29-1.09V9.34l-10.2,26.86h-1.05l-10.61-25.41v23.47l2.54,1.57v.36h-5.57v-.36l2.54-1.57V9.9l-2.06-1.57v-.36h4.6l10.4,24.8,9.4-24.8h4.27v.36l-1.29,1.09Z"/><path class="cls-1" d="m107.36,16.55c0,6.25-5.77,8.59-11.33,8.59h-4.44v9.6l1.29,1.09v.36h-5.57v-.36l1.29-1.09V9.42l-1.29-1.09v-.36h8.71c5.57,0,11.33,2.34,11.33,8.59Zm-3.23,0c0-5.04-3.06-8.11-8.11-8.11h-4.44v16.21h4.44c5.04,0,8.11-3.06,8.11-8.11Z"/><path class="cls-1" d="m130.95,35.83v.36h-6.21v-.36l1.01-1.17-6.09-9.6c-.48.04-.97.08-1.41.08h-4.19v9.6l1.29,1.09v.36h-5.57v-.36l1.29-1.09V9.42l-1.29-1.09v-.36h8.71c5.57,0,11.33,2.34,11.33,8.59,0,3.99-3.15,6.69-7.02,7.9l6.25,9.8,1.9,1.57Zm-12.7-11.17c5.04,0,8.35-3.06,8.35-8.11s-3.06-8.11-8.11-8.11h-4.44v16.21h4.19Z"/><path class="cls-1" d="m159.66,22.08c0,7.94-6.25,14.68-13.75,14.68s-13.75-6.73-13.75-14.68,6.25-14.68,13.75-14.68,13.75,6.69,13.75,14.68Zm-3.31-1.94c-1.21-7.34-6.21-13.15-12.7-11.94-6.53,1.21-9.36,8.47-8.15,15.81s6.17,13.15,12.7,11.94c6.49-1.21,9.32-8.47,8.15-15.81Z"/><path class="cls-1" d="m189.14,9.42v25.33l1.29,1.09v.36h-5.57v-.36l1.29-1.09V9.34l-10.2,26.86h-1.05l-10.61-25.41v23.47l2.54,1.57v.36h-5.57v-.36l2.54-1.57V9.9l-2.06-1.57v-.36h4.6l10.41,24.8,9.4-24.8h4.28v.36l-1.29,1.09Z"/><path class="cls-1" d="m197.13,9.42v25.33l1.29,1.09v.36h-5.57v-.36l1.25-1.09V9.42l-1.25-1.09v-.36h5.57v.36l-1.29,1.09Z"/><path class="cls-1" d="m203.46,12.56c0,3.87,3.43,5.24,6.37,6.82,4.68,2.42,9.88,4.15,9.88,9.8,0,5.2-4.84,7.58-9.96,7.58-4.44,0-6.82-.93-8.59-1.61l-1.13-4.31h.32c2.94,4.19,5.65,5.44,10.32,5.44,3.39,0,6.45-1.9,6.45-5.89-.04-4.6-4.23-5.81-8.43-7.94-3.35-1.69-7.78-3.91-7.78-8.35,0-5.12,5.24-6.69,8.63-6.69,2.22,0,5.12.44,7.7.89l1.21,4.36h-.36c-2.54-3.43-4.44-4.76-8.99-4.76-2.66,0-5.69,1.37-5.65,4.68Z"/><path class="cls-1" d="m224.75,12.56c0,3.87,3.43,5.24,6.37,6.82,4.68,2.42,9.88,4.15,9.88,9.8,0,5.2-4.84,7.58-9.96,7.58-4.44,0-6.82-.93-8.59-1.61l-1.13-4.31h.32c2.94,4.19,5.65,5.44,10.32,5.44,3.39,0,6.45-1.9,6.45-5.89-.04-4.6-4.23-5.81-8.43-7.94-3.35-1.69-7.78-3.91-7.78-8.35,0-5.12,5.24-6.69,8.63-6.69,2.22,0,5.12.44,7.7.89l1.21,4.36h-.36c-2.54-3.43-4.44-4.76-8.99-4.76-2.66,0-5.69,1.37-5.65,4.68Z"/><path class="cls-1" d="m270.93,22.08c0,7.94-6.25,14.68-13.75,14.68s-13.75-6.73-13.75-14.68,6.25-14.68,13.75-14.68,13.75,6.69,13.75,14.68Zm-3.31-1.94c-1.21-7.34-6.21-13.15-12.7-11.94-6.53,1.21-9.36,8.47-8.15,15.81,1.21,7.34,6.17,13.15,12.7,11.94,6.49-1.21,9.32-8.47,8.15-15.81Z"/></svg>