<?xml version="1.0" encoding="utf-8"?>
<!-- Generator: Adobe Illustrator 28.0.0, SVG Export Plug-In . SVG Version: 6.00 Build 0)  -->
<svg version="1.1" id="Layer_1" xmlns="http://www.w3.org/2000/svg" xmlns:xlink="http://www.w3.org/1999/xlink" x="0px" y="0px"
	 viewBox="0 0 275 35" style="enable-background:new 0 0 275 35;" xml:space="preserve">
<style type="text/css">
	.st0{fill:#B29220;}
</style>
<path class="st0" d="M22.8,30l0.4,0.4c-2.3,2.6-5.4,4.6-10,4.6C5.5,35,0,28.7,0,21.2C0,13.6,6.1,7.3,13.2,7.3c2.3,0,4.7,0.4,6.8,0.8
	l1.1,4h-0.3c-2.4-3.4-6.2-4.8-9.8-4.1c-6.1,1.2-9,8-7.9,14.9c1,6.1,5.2,12,12.4,11C18.4,33.6,20.9,32.1,22.8,30z M36.9,7.3
	c7.1,0,13,6.3,13,13.8c0,7.5-5.9,13.8-13,13.8s-13-6.3-13-13.8C24,13.6,29.9,7.3,36.9,7.3z M39.1,34.2c6.1-1.1,8.8-8,7.7-14.9
	c-1.1-6.9-5.9-12.4-12-11.2c-6.2,1.1-8.8,8-7.7,14.9C28.3,29.9,32.9,35.4,39.1,34.2z M68.8,7.9H74v0.3l-2.4,1.5v24.8h-1.3L54.3,10
	v22.7l2.4,1.5v0.3h-5.2v-0.3l2.4-1.5v-23l-1.9-1.5V7.9h4.4l14.9,22.7V9.7l-2.4-1.5V7.9z M91.7,7.9l0.8,4.1h-0.3l-2.7-3.7h-9.5v9.8
	h7.1l1.3-1.9h0.3v4.3h-0.3l-1.3-1.9h-7.1v14.5l1.2,1v0.3h-5.2v-0.3l1.2-1V9.2l-1.2-1V7.9H91.7z M99.7,8.2l-1.2,1v23.9l1.2,1v0.3
	h-5.2v-0.3l1.2-1V9.2l-1.2-1V7.9h5.2V8.2z M123.9,32.8l2,1.3v0.3h-6.3v-0.3l1.4-1.1l-3.5-9.1h-9.8l-3.3,8.7l1.9,1.5v0.3h-5.1v-0.3
	l2.7-1.6l8.4-21.9l-1.1-2.8h3L123.9,32.8z M107.8,23.5h9.4l-4.7-12.2L107.8,23.5z M116.7,0.5c0.3,0.5,0.4,1.2-0.5,1.7
	c-2.7,1.6-4.8,2.5-5.6,2.9l-0.2-0.3c0.7-0.7,2.2-2.2,4.6-4.3C115.7-0.2,116.3,0,116.7,0.5z M144.7,8.2l-2.7,1.6L133.5,32l1,2.5h-3
	l-9.7-25l-2-1.3V7.9h6.6v0.3l-1.7,1.1l8.6,22l8.3-21.6l-2.2-1.5V7.9h5.3V8.2z M163.5,30.3h0.3l-0.8,4.2h-16.8v-0.3l1.2-1V9.2l-1.2-1
	V7.9h16l0.8,4.1h-0.3l-2.7-3.7h-9.8v9.8h7.2l1.3-1.9h0.3v4.3h-0.3l-1.3-1.9h-7.2V34h10.6L163.5,30.3z M183.1,30.3h0.3l-0.8,4.2
	h-16.8v-0.3l1.2-1V9.2l-1.2-1V7.9h5.2v0.3l-1.2,1V34h10.5L183.1,30.3z"/>
</svg>
