<?xml version="1.0" encoding="UTF-8"?><svg id="Layer_1" xmlns="http://www.w3.org/2000/svg" viewBox="0 0 286.61 45.95"><defs><style>.cls-1{fill:#b29220;stroke-width:0px;}</style></defs><path class="cls-1" d="m25.81,31.84c-2.42,2.78-5.77,4.92-10.65,4.92-8.11,0-13.95-6.73-13.95-14.68S7.7,7.4,15.2,7.4c2.46,0,4.96.44,7.22.89l1.21,4.27h-.36c-2.54-3.59-6.57-5.12-10.36-4.36-6.49,1.29-9.56,8.47-8.35,15.81,1.05,6.45,5.57,12.78,13.15,11.7,3.06-.44,5.65-1.98,7.66-4.27l.44.4Z"/><path class="cls-1" d="m54.12,22.08c0,7.95-6.25,14.68-13.75,14.68s-13.75-6.73-13.75-14.68,6.25-14.68,13.75-14.68,13.75,6.69,13.75,14.68Zm-3.31-1.94c-1.21-7.34-6.21-13.15-12.7-11.94-6.53,1.21-9.36,8.47-8.15,15.81,1.21,7.34,6.17,13.15,12.7,11.94,6.49-1.21,9.32-8.47,8.15-15.81Z"/><path class="cls-1" d="m79.69,7.96v.36l-2.54,1.57v26.29h-1.33l-17.06-26.01v24.08l2.54,1.57v.36h-5.57v-.36l2.54-1.57V9.9l-2.06-1.57v-.36h4.68l15.77,24.08V9.9l-2.54-1.57v-.36h5.57Z"/><path class="cls-1" d="m102.64,9.42v25.33l1.29,1.09v.36h-5.57v-.36l1.29-1.09v-15.41h-13.67v15.41l1.29,1.09v.36h-5.57v-.36l1.25-1.09V9.42l-1.25-1.09v-.36h5.57v.36l-1.29,1.09v9.44h13.67v-9.44l-1.29-1.09v-.36h5.57v.36l-1.29,1.09Z"/><path class="cls-1" d="m125.06,31.76l-.89,4.44h-17.83v-.36l1.29-1.09V9.42l-1.29-1.09v-.36h17.02l.89,4.4h-.36l-2.86-3.91h-10.4v10.4h7.66l1.33-2.06h.36v4.6h-.36l-1.33-2.06h-7.66v16.37h11.21l2.86-3.95h.36Z"/><path class="cls-1" d="m150.47,31.84c-2.42,2.78-5.77,4.92-10.65,4.92-8.11,0-13.95-6.73-13.95-14.68s6.49-14.68,13.99-14.68c2.46,0,4.96.44,7.22.89l1.21,4.27h-.36c-2.54-3.59-6.57-5.12-10.36-4.36-6.49,1.29-9.56,8.47-8.35,15.81,1.05,6.45,5.57,12.78,13.15,11.7,3.07-.44,5.65-1.98,7.66-4.27l.44.4Z"/><path class="cls-1" d="m155.95,9.42v25.33l1.29,1.09v.36h-5.57v-.36l1.25-1.09V9.42l-1.25-1.09v-.36h5.57v.36l-1.29,1.09Z"/><path class="cls-1" d="m187.12,9.42v25.33l1.29,1.09v.36h-5.57v-.36l1.29-1.09V9.34l-10.2,26.86h-1.05l-10.61-25.41v23.47l2.54,1.57v.36h-5.57v-.36l2.54-1.57V9.9l-2.06-1.57v-.36h4.6l10.41,24.8,9.4-24.8h4.28v.36l-1.29,1.09Z"/><path class="cls-1" d="m209.55,31.76l-.89,4.44h-17.83v-.36l1.29-1.09V9.42l-1.29-1.09v-.36h17.02l.89,4.4h-.36l-2.86-3.91h-10.41v10.4h7.66l1.33-2.06h.36v4.6h-.36l-1.33-2.06h-7.66v16.37h11.21l2.86-3.95h.36Z"/><path class="cls-1" d="m235.12,7.96v.36l-2.54,1.57v26.29h-1.33l-17.06-26.01v24.08l2.54,1.57v.36h-5.57v-.36l2.54-1.57V9.9l-2.06-1.57v-.36h4.68l15.77,24.08V9.9l-2.54-1.57v-.36h5.57Z"/><path class="cls-1" d="m257.82,12.4h-.36l-2.86-3.95h-6.01v26.29l1.29,1.09v.36h-5.61v-.36l1.29-1.09V8.45h-6.01l-2.86,3.95h-.36l.89-4.44h19.72l.89,4.44Z"/><path class="cls-1" d="m285.32,22.08c0,7.95-6.25,14.68-13.75,14.68s-13.75-6.73-13.75-14.68,6.25-14.68,13.75-14.68,13.75,6.69,13.75,14.68Zm-3.31-1.94c-1.21-7.34-6.21-13.15-12.7-11.94-6.53,1.21-9.36,8.47-8.15,15.81,1.21,7.34,6.17,13.15,12.7,11.94,6.49-1.21,9.32-8.47,8.15-15.81Z"/></svg>