<?xml version="1.0" encoding="UTF-8"?><svg id="Layer_1" xmlns="http://www.w3.org/2000/svg" viewBox="0 0 286.61 45.95"><defs><style>.cls-1{fill:#b29220;stroke-width:0px;}</style></defs><path class="cls-1" d="m19.92,31.76l-.89,4.44H1.21v-.36l1.29-1.09V9.42l-1.29-1.09v-.36h17.02l.89,4.4h-.36l-2.86-3.91H5.48v10.4h7.66l1.33-2.06h.36v4.6h-.36l-1.33-2.06h-7.66v16.37h11.21l2.86-3.95h.36Z"/><path class="cls-1" d="m49.4,9.42v25.33l1.29,1.09v.36h-5.57v-.36l1.29-1.09V9.34l-10.2,26.86h-1.05l-10.61-25.41v23.47l2.54,1.57v.36h-5.57v-.36l2.54-1.57V9.9l-2.06-1.57v-.36h4.6l10.4,24.8,9.4-24.8h4.27v.36l-1.29,1.09Z"/><path class="cls-1" d="m73.16,16.55c0,6.25-5.77,8.59-11.33,8.59h-4.44v9.6l1.29,1.09v.36h-5.57v-.36l1.29-1.09V9.42l-1.29-1.09v-.36h8.71c5.57,0,11.33,2.34,11.33,8.59Zm-3.23,0c0-5.04-3.06-8.11-8.11-8.11h-4.44v16.21h4.44c5.04,0,8.11-3.06,8.11-8.11Z"/><path class="cls-1" d="m94.89,35.83v.36h-6.73v-.36l1.49-1.13-3.71-9.64h-10.36l-3.55,9.2,2.06,1.57v.36h-5.36v-.36l2.82-1.65,8.91-23.23-1.17-2.98h3.23l10.28,26.5,2.1,1.37Zm-9.15-11.25l-5-12.95-5,12.95h10Z"/><path class="cls-1" d="m112.76,12.4h-.36l-2.86-3.95h-6.01v26.29l1.29,1.09v.36h-5.61v-.36l1.29-1.09V8.45h-6.01l-2.86,3.95h-.36l.89-4.44h19.72l.89,4.44Z"/><path class="cls-1" d="m119.05,9.42v25.33l1.29,1.09v.36h-5.57v-.36l1.25-1.09V9.42l-1.25-1.09v-.36h5.57v.36l-1.29,1.09Z"/><path class="cls-1" d="m148.13,35.83v.36h-6.73v-.36l1.49-1.13-3.71-9.64h-10.36l-3.55,9.2,2.06,1.57v.36h-5.36v-.36l2.82-1.65,8.91-23.23-1.17-2.98h3.23l10.28,26.5,2.1,1.37Zm-9.15-11.25l-5-12.95-5,12.95h10Z"/></svg>