<?xml version="1.0" encoding="UTF-8"?><svg id="Layer_1" xmlns="http://www.w3.org/2000/svg" viewBox="0 0 286.61 45.95"><defs><style>.cls-1{fill:#b29220;stroke-width:0px;}</style></defs><path class="cls-1" d="m19.92,31.76l-.89,4.44H1.21v-.36l1.29-1.09V9.42l-1.29-1.09v-.36h17.02l.89,4.4h-.36l-2.86-3.91H5.48v10.4h7.66l1.33-2.06h.36v4.6h-.36l-1.33-2.06h-7.66v16.37h11.21l2.86-3.95h.36Z"/><path class="cls-1" d="m45.49,7.96v.36l-2.54,1.57v26.29h-1.33L24.56,10.18v24.08l2.54,1.57v.36h-5.57v-.36l2.54-1.57V9.9l-2.06-1.57v-.36h4.68l15.77,24.08V9.9l-2.54-1.57v-.36h5.57Z"/><path class="cls-1" d="m68.2,12.4h-.36l-2.86-3.95h-6.01v26.29l1.29,1.09v.36h-5.61v-.36l1.29-1.09V8.45h-6.01l-2.86,3.95h-.36l.89-4.44h19.72l.89,4.44Z"/><path class="cls-1" d="m91.38,35.83v.36h-6.21v-.36l1.01-1.17-6.09-9.6c-.48.04-.97.08-1.41.08h-4.19v9.6l1.29,1.09v.36h-5.57v-.36l1.29-1.09V9.42l-1.29-1.09v-.36h8.71c5.57,0,11.33,2.34,11.33,8.59,0,3.99-3.15,6.69-7.02,7.9l6.25,9.8,1.9,1.57Zm-12.7-11.17c5.04,0,8.35-3.06,8.35-8.11s-3.06-8.11-8.11-8.11h-4.44v16.21h4.19Z"/><path class="cls-1" d="m112.11,31.76l-.89,4.44h-17.83v-.36l1.29-1.09V9.42l-1.29-1.09v-.36h17.02l.89,4.4h-.36l-2.86-3.91h-10.4v10.4h7.66l1.33-2.06h.36v4.6h-.36l-1.33-2.06h-7.66v16.37h11.21l2.86-3.95h.36Z"/><path class="cls-1" d="m138.73,18.85v.36l-1.21,1.09v11.86c-2.42,2.78-5.81,4.6-10.61,4.6-8.15,0-13.99-6.73-13.99-14.68s6.49-14.68,13.99-14.68c2.46,0,4.96.44,7.22.89l1.21,4.27h-.36c-2.5-3.59-6.53-5.12-10.32-4.36-6.53,1.29-9.6,8.47-8.39,15.81,1.05,6.45,5.57,13.03,13.15,11.94,1.98-.28,4.03-1.17,5.28-2.7v-13.91h-9.36v-.48h13.39Z"/><path class="cls-1" d="m164.5,35.83v.36h-6.73v-.36l1.49-1.13-3.71-9.64h-10.36l-3.55,9.2,2.06,1.57v.36h-5.36v-.36l2.82-1.65,8.91-23.23-1.17-2.98h3.23l10.28,26.5,2.1,1.37Zm-9.15-11.25l-5-12.95-5,12.95h10Z"/></svg>