<?xml version="1.0" encoding="UTF-8"?><svg id="Layer_1" xmlns="http://www.w3.org/2000/svg" viewBox="0 0 286.61 45.95"><defs><style>.cls-1{fill:#b29220;stroke-width:0px;}</style></defs><path class="cls-1" d="m5.48,9.42v25.33l1.29,1.09v.36H1.21v-.36l1.25-1.09V9.42l-1.25-1.09v-.36h5.57v.36l-1.29,1.09Z"/><path class="cls-1" d="m32.75,7.96v.36l-2.54,1.57v26.29h-1.33L11.82,10.18v24.08l2.54,1.57v.36h-5.57v-.36l2.54-1.57V9.9l-2.06-1.57v-.36h4.68l15.77,24.08V9.9l-2.54-1.57v-.36h5.57Z"/><path class="cls-1" d="m55.45,12.4h-.36l-2.86-3.95h-6.01v26.29l1.29,1.09v.36h-5.61v-.36l1.29-1.09V8.45h-6.01l-2.86,3.95h-.36l.89-4.44h19.72l.89,4.44Z"/><path class="cls-1" d="m76.18,31.76l-.89,4.44h-17.83v-.36l1.29-1.09V9.42l-1.29-1.09v-.36h17.02l.89,4.4h-.36l-2.86-3.91h-10.4v10.4h7.66l1.33-2.06h.36v4.6h-.36l-1.33-2.06h-7.66v16.37h11.21l2.86-3.95h.36Z"/><path class="cls-1" d="m101.75,7.96v.36l-2.54,1.57v26.29h-1.33l-17.06-26.01v24.08l2.54,1.57v.36h-5.57v-.36l2.54-1.57V9.9l-2.06-1.57v-.36h4.68l15.77,24.08V9.9l-2.54-1.57v-.36h5.57Z"/><path class="cls-1" d="m105.98,12.56c0,3.87,3.43,5.24,6.37,6.82,4.68,2.42,9.88,4.15,9.88,9.8,0,5.2-4.84,7.58-9.96,7.58-4.44,0-6.82-.93-8.59-1.61l-1.13-4.31h.32c2.94,4.19,5.65,5.44,10.32,5.44,3.39,0,6.45-1.9,6.45-5.89-.04-4.6-4.23-5.81-8.43-7.94-3.35-1.69-7.78-3.91-7.78-8.35,0-5.12,5.24-6.69,8.63-6.69,2.22,0,5.12.44,7.7.89l1.21,4.36h-.36c-2.54-3.43-4.44-4.76-8.99-4.76-2.66,0-5.69,1.37-5.65,4.68Z"/><path class="cls-1" d="m128.93,9.42v25.33l1.29,1.09v.36h-5.57v-.36l1.25-1.09V9.42l-1.25-1.09v-.36h5.57v.36l-1.29,1.09Z"/><path class="cls-1" d="m156.88,22.08c0,7.78-5.04,14.12-16.29,14.12h-7.94v-.36l1.29-1.09V9.42l-1.29-1.09v-.36h7.94c11.25,0,16.29,6.33,16.29,14.12Zm-3.23,0c0-8.27-4.76-13.63-13.07-13.63h-3.63v27.26h3.63c8.31,0,13.07-5.36,13.07-13.63Z"/><path class="cls-1" d="m181.44,35.83v.36h-6.74v-.36l1.49-1.13-3.71-9.64h-10.37l-3.55,9.2,2.06,1.57v.36h-5.36v-.36l2.82-1.65,8.91-23.23-1.17-2.98h3.23l10.28,26.5,2.1,1.37Zm-9.16-11.25l-5-12.95-5,12.95h10Z"/><path class="cls-1" d="m207.29,22.08c0,7.78-5.04,14.12-16.29,14.12h-7.94v-.36l1.29-1.09V9.42l-1.29-1.09v-.36h7.94c11.25,0,16.29,6.33,16.29,14.12Zm-3.23,0c0-8.27-4.76-13.63-13.07-13.63h-3.63v27.26h3.63c8.31,0,13.07-5.36,13.07-13.63Z"/><path class="cls-1" d="m228.42,31.76l-.89,4.44h-17.83v-.36l1.29-1.09V9.42l-1.29-1.09v-.36h17.02l.89,4.4h-.36l-2.86-3.91h-10.41v10.4h7.66l1.33-2.06h.36v4.6h-.36l-1.33-2.06h-7.66v16.37h11.21l2.86-3.95h.36Z"/></svg>