<?xml version="1.0" encoding="utf-8"?>
<!-- Generator: Adobe Illustrator 28.0.0, SVG Export Plug-In . SVG Version: 6.00 Build 0)  -->
<svg version="1.1" id="Layer_2_00000021108010138811565720000016679542839909530034_"
	 xmlns="http://www.w3.org/2000/svg" xmlns:xlink="http://www.w3.org/1999/xlink" x="0px" y="0px" viewBox="0 0 1370.4 226.4"
	 style="enable-background:new 0 0 1370.4 226.4;" xml:space="preserve">
<style type="text/css">
	.st0{fill:#122561;}
</style>
<g id="logo-name">
	<g id="toledo">
		<path class="st0" d="M312.5,26.1H311l-11-15.2h-23v100.8l5,4.2v1.4h-21.5v-1.4l5-4.2V10.9h-23l-11,15.2H230l3.4-17h75.6
			L312.5,26.1L312.5,26.1L312.5,26.1z"/>
		<path class="st0" d="M421.1,63.2c0,30.5-23.9,56.3-52.7,56.3s-52.7-25.8-52.7-56.3s23.9-56.3,52.7-56.3S421.1,32.6,421.1,63.2
			C421.1,63.2,421.1,63.2,421.1,63.2z M408.4,55.7c-4.6-28.1-23.8-50.4-48.7-45.8c-25,4.6-35.8,32.5-31.2,60.6
			c4.6,28.2,23.6,50.4,48.7,45.8C402.1,111.7,413,83.9,408.4,55.7L408.4,55.7z"/>
		<path class="st0" d="M504,100.3l-3.4,17h-68.3v-1.4l5-4.2V14.6l-5-4.2V9.1h21.3v1.4l-5,4.2v100.8h42.8l11.1-15.2L504,100.3
			L504,100.3z"/>
		<path class="st0" d="M584,100.3l-3.4,17h-68.3v-1.4l5-4.2V14.6l-5-4.2V9.1h65.3l3.4,16.9h-1.4l-11-15h-39.9v39.9H558l5.1-7.9h1.4
			v17.6h-1.4l-5.1-7.9h-29.4v62.7h43l11-15.2L584,100.3L584,100.3z"/>
		<path class="st0" d="M685.2,63.2c0,29.8-19.3,54.1-62.4,54.1h-30.5v-1.4l5-4.2V14.6l-5-4.2V9.1h30.5
			C665.8,9.1,685.2,33.4,685.2,63.2L685.2,63.2L685.2,63.2z M672.8,63.2c0-31.7-18.2-52.3-50.1-52.3h-13.9v104.5h13.9
			C654.6,115.4,672.8,94.9,672.8,63.2L672.8,63.2z"/>
		<path class="st0" d="M801.1,63.2c0,30.5-23.9,56.3-52.7,56.3s-52.7-25.8-52.7-56.3s23.9-56.3,52.7-56.3S801.1,32.6,801.1,63.2z
			 M788.5,55.7c-4.6-28.1-23.8-50.4-48.7-45.8c-25,4.6-35.8,32.5-31.2,60.6c4.6,28.2,23.6,50.4,48.7,45.8
			C782.2,111.7,793,83.9,788.5,55.7z"/>
	</g>
	<path id="e" class="st0" d="M893.6,55.8c-0.2-0.3-0.4-0.5-0.5-0.8c-2.9-4.3-5.4-8.9-7.4-13.7c-1.3-3.3-2.3-6.6-2.8-10.1
		c-0.3-1.9-0.4-3.7-0.3-5.6c0.3-5.8,2.2-11,6-15.5c2.3-2.8,4.9-5.1,8-6.8c2.8-1.5,5.6-2.5,8.7-3c1.9-0.3,3.8-0.4,5.7-0.3
		c5.3,0.4,10.2,2,14.3,5.5c2.8,2.4,4.9,5.3,6.2,8.7c0.7,1.9,1.1,3.8,1.2,5.8c0.1,1.8,0,3.6-0.3,5.4c-0.4,2.1-1,4-2,5.9
		c-1.7,3.3-3.9,6.2-6.6,8.8c-2.8,2.6-5.7,4.8-8.8,6.8c-2.6,1.6-5.2,3.2-7.9,4.6c-0.2,0.2-0.5,0.2-0.7,0.4c0.1,0.4,0.3,0.5,0.5,0.7
		c1.8,2.2,3.6,4.3,5.4,6.5c4.8,5.5,9.9,10.8,15,16.1c5.4,5.5,11,10.9,16.7,16.2c0.2,0.2,0.5,0.4,0.6,0.6c0,0,0.1,0.1,0.2,0.1
		c0.1-0.1,0.2-0.2,0.3-0.3c1.9-3.5,3.3-7.1,3.8-11c0.2-1.9,0.2-3.9,0.1-5.8c-0.2-2.1-0.6-4-1.3-5.9c-1.5-4.2-4-7.6-7.7-10.1
		c-2.5-1.8-5.3-2.8-8.5-3.1c-0.2,0-0.3-0.1-0.5-0.1c0,0-0.1,0-0.2-0.1c-0.2-0.3-0.2-0.6,0-1c0.2,0,0.2-0.1,0.3-0.1h27.8
		c0.1,0,0.2,0.1,0.2,0.1v0.6c-0.3,3.6-0.7,7.3-1.4,10.8c-1,5.5-2.8,10.8-5,15.8c-1.7,3.7-3.6,7.3-6.1,10.6c-0.1,0.2-0.2,0.3-0.3,0.4
		c0.8,1,8.5,7.4,13.3,10.9c4.6,3.4,9.4,6.5,14.3,9.4c0.2,0.4,0.1,0.8,0,1.2c-0.2,0.2-0.5,0.2-0.7,0.2c-1.5,0-3,0-4.5-0.1
		c-2.7-0.1-5.3-0.1-8-0.2c-2.7-0.1-5.4-0.1-8.1-0.2h-0.6c-0.5,0-0.9-0.2-1.3-0.5c-4.1-3.3-8.1-6.6-12.2-10c-0.2-0.2-0.5-0.4-0.8-0.6
		c-0.3,0.1-0.5,0.3-0.7,0.5c-2.6,2.2-5.4,4.3-8.3,6.1c-5.3,3.2-11.1,5.3-17.1,6.6c-3.4,0.7-6.8,1-10.3,1c-6.8-0.1-13.4-1.5-19.5-4.7
		c-3.9-2-7.3-4.7-10.1-8.1c-2.2-2.7-3.9-5.6-5-8.8c-1-3.3-1.3-6.8-1.1-10.3c0.2-3,0.9-5.9,2.2-8.6c1.2-2.6,2.8-5.1,4.6-7.2
		c2.2-2.6,4.8-4.8,7.6-6.8c2.9-2,6-3.8,9.1-5.3c1.1-0.6,2.3-1.1,3.4-1.6C893.1,56.1,893.3,56,893.6,55.8L893.6,55.8L893.6,55.8z
		 M895.1,57.5c-0.2,0.1-0.4,0.2-0.5,0.3c-0.5,0.4-1.1,0.7-1.6,1.2c-3.1,2.3-5.8,5-8,8.3c-2.2,3.4-3.4,7.1-3.7,11.2
		c-0.2,1.9-0.1,3.9,0.2,5.8c0.2,2.2,0.7,4.4,1.5,6.5c1.7,4.7,4.4,8.7,8,12.1c5.4,5.1,11.7,8,19.1,8.8c2.4,0.3,4.8,0.2,7.2-0.1
		c3.1-0.4,6.2-1.3,9.1-2.6c3.7-1.6,6.9-4,9.8-6.8c0.1-0.1,0.2-0.2,0.3-0.4c-0.5-0.6-1.1-1-1.6-1.6c-0.6-0.5-1.2-1-1.7-1.6
		c-0.6-0.5-1.1-1-1.7-1.6s-1.1-1.1-1.7-1.6s-1.1-1-1.6-1.6c-0.6-0.5-1.1-1.1-1.7-1.6c-0.5-0.5-1.1-1-1.6-1.6
		c-0.6-0.6-1.1-1.1-1.7-1.6c-0.5-0.5-1.1-1.1-1.6-1.6c-0.6-0.6-1.1-1.1-1.6-1.7c-0.5-0.5-1-1.1-1.6-1.6c-0.5-0.6-1.1-1.1-1.6-1.7
		s-1-1.1-1.6-1.6s-1-1.1-1.6-1.7s-1.1-1.2-1.6-1.7c-0.5-0.6-1-1.1-1.6-1.7s-1-1.2-1.6-1.8s-1-1.1-1.5-1.7c-0.5-0.6-1-1.2-1.6-1.8
		s-1-1.2-1.5-1.7c-0.5-0.6-1-1.2-1.6-1.8s-1-1.2-1.5-1.8s-1-1.3-1.5-1.9s-1-1.2-1.4-1.8c-0.5-0.6-1-1.3-1.5-1.9
		C896,58.7,895.6,58.1,895.1,57.5L895.1,57.5L895.1,57.5z M905.2,50.4c0.2-0.2,0.5-0.2,0.6-0.3c1.4-0.8,2.8-1.6,4-2.6
		c1.9-1.4,3.7-3,5.3-4.9c2.9-3.3,4.8-7.2,5.8-11.5c0.5-1.9,0.7-3.8,0.7-5.7c0.2-2.1,0.1-4.2-0.2-6.2c-0.5-3.3-1.6-6.3-3.4-9
		c-1.9-2.8-4.4-4.9-7.6-6.1c-3-1.1-6-1.5-9.1-0.7c-3.3,0.8-5.9,2.6-7.7,5.4c-1.6,2.3-2.3,4.9-2.5,7.7c-0.1,3,0.3,5.9,1,8.8
		c1,3.9,2.5,7.7,4.3,11.4c2.4,4.7,5.2,9.1,8.2,13.3C904.9,50,905.1,50.2,905.2,50.4L905.2,50.4L905.2,50.4z"/>
	<g id="lima">
		<path class="st0" d="M1109.4,101l-3.4,17h-68.3v-1.4l5-4.2V15.4l-5-4.2V9.8h21.3v1.4l-5,4.2v100.8h42.8L1108,101L1109.4,101
			L1109.4,101z"/>
		<path class="st0" d="M1134.1,15.4v97.1l5,4.2v1.4h-21.3v-1.4l4.8-4.2V15.4l-4.8-4.2V9.8h21.3v1.4L1134.1,15.4z"/>
		<path class="st0" d="M1255.9,15.4v97.1l5,4.2v1.4h-21.3v-1.4l5-4.2V15.1L1205.5,118h-4l-40.7-97.4v90l9.7,6v1.4h-21.3v-1.4l9.7-6
			V17.2l-7.9-6V9.7h17.6l39.9,95.1l36.1-95.1h16.4v1.4L1255.9,15.4L1255.9,15.4L1255.9,15.4z"/>
		<path class="st0" d="M1370.4,116.6v1.4h-25.8v-1.4l5.7-4.3l-14.2-37h-39.7l-13.6,35.2l7.9,6v1.4h-20.6v-1.4l10.8-6.3l34.2-89.1
			l-4.5-11.4h12.3l39.4,101.5L1370.4,116.6L1370.4,116.6L1370.4,116.6z M1335.3,73.5l-19.2-49.7l-19.2,49.7H1335.3L1335.3,73.5z"/>
	</g>
	<path class="st0" d="M128.5,39.1h-2.2l-17.2-23.6H73.2v157.1L81,179v2.2H47.5V179l7.8-6.5V15.4H19.4L2.2,39.1H0l5.3-26.5h117.8
		L128.5,39.1L128.5,39.1L128.5,39.1z"/>
	<path class="st0" d="M196,186l-5.4,26.8H83.1v-2.2L91,204V51.3l-7.8-6.5v-2.2h33.6v2.2l-7.8,6.5v158.6h67.4l17.5-23.9L196,186
		L196,186z"/>
	<path class="st0" d="M325.3,205.8c-3.9,4-8.2,6.5-15.2,6.5c-13.2,0-20.7-9.8-20.7-19.5s7.5-20,20.7-20c4.1,0,6.9,0.7,10.7,1.3
		l2,6.7h-0.6c-3.3-4.5-9.1-8.2-16-6.7c-8.8,1.8-12.7,11.7-10.9,20.8c1.6,8,7.6,17,18.1,15.7c4.8-0.6,8.1-2.3,11.2-5.5L325.3,205.8
		L325.3,205.8z"/>
	<path class="st0" d="M365.5,192.9c0,9.7-6.5,19.5-19.7,19.5s-19.8-9.8-19.8-19.5s6.6-20,19.8-20S365.5,183.2,365.5,192.9z
		 M359.6,190c-1.9-9.3-8.8-17.7-17.7-15.8c-8.8,1.9-11.8,11.7-10,20.9c1.9,9.4,8.8,17.9,17.8,15.9
		C358.6,209.2,361.6,199.1,359.6,190L359.6,190z"/>
	<path class="st0" d="M406.3,210.6v0.7H396v-0.7l2.4-2V186c0-6.8-4.2-11.7-10.2-11.7s-10.7,4.4-11.8,10.4v24l2.4,2v0.7h-10.3v-0.7
		l2.4-2v-30.5l-2.4-1.6v-0.7l7.2-3.1h0.7v5.6c4-3.6,8.7-5.6,13.8-5.6c7.1,0,13.8,3.9,13.8,13.5v22.2L406.3,210.6L406.3,210.6z"/>
	<path class="st0" d="M416.3,180.7c1.8,7.7,24.8,10.5,24.8,21.2c0,7.1-8.7,10.5-16.1,10.5c-5,0-11.3-1.4-16.4-4.9l1.8-5.6
		c4.3,5.7,10.5,9.4,16,9.4c5,0,10.3-1.6,10.3-6.9c0-9-24.3-10.9-24.8-21.6c-0.2-6.2,6.4-9.9,12.4-9.9c3.2,0,8.6,0.4,14.9,3.6
		l-1.9,5.6c-3.6-4.7-7.7-8.3-13.7-8.3C419.7,173.8,415.2,176.4,416.3,180.7L416.3,180.7z"/>
	<path class="st0" d="M481.1,210.6v0.7h-8v-4.8c-4,3.6-7.4,5.8-13.8,5.8c-7.1,0-13.7-3.8-13.7-13.4v-20.7l-2.4-1.6v-0.7l7.2-3.1h0.7
		v26.5c0,6.8,3.7,11.7,9.7,11.7s10.5-4,12.3-6.5v-26.5l-2.4-1.6v-0.7l7.3-3.1h0.7v35.8L481.1,210.6L481.1,210.6z"/>
	<path class="st0" d="M495.9,210.6v0.7h-10.3v-0.7l2.4-2v-47.1l-2.4-1.6v-0.7l7.3-3.1h0.7v52.4L495.9,210.6L495.9,210.6z"/>
	<path class="st0" d="M515.3,210.9v0.9c-5.3,0.2-12.3-1-12.3-10.4v-27.6h-4.2v-0.9l9.1-6.2h0.7v6.2h6.2v0.9h-6.2v28.5
		C508.6,206.6,509.8,210.9,515.3,210.9L515.3,210.9z"/>
	<path class="st0" d="M554.8,192.9c0,9.7-6.5,19.5-19.7,19.5s-19.8-9.8-19.8-19.5s6.6-20,19.8-20S554.8,183.2,554.8,192.9z
		 M548.9,190c-1.9-9.3-8.8-17.7-17.7-15.8c-8.8,1.9-11.8,11.7-10,20.9c1.9,9.4,8.8,17.9,17.8,15.9
		C547.9,209.2,550.9,199.1,548.9,190L548.9,190z"/>
	<path class="st0" d="M585.7,174.1l-1.6,5.5c-3.3-3.6-6.4-4.7-8.9-4.7c-5.3,0-8.7,5.3-9.5,9.7v24l2.4,2v0.7h-10.3v-0.7l2.3-2v-30.5
		l-2.3-1.6V176l7.2-3.1h0.7v5.6c4.2-3.8,8.5-5.6,13.7-5.6C581.6,172.9,583.8,173.2,585.7,174.1L585.7,174.1z"/>
	<path class="st0" d="M598.1,210.6v0.7h-10.3v-0.7l2.3-2v-30.5l-2.3-1.6v-0.7l7.2-3.1h0.7v35.8L598.1,210.6z M589,165.6
		c0-1.9,1.5-3.5,3.4-3.5s3.4,1.6,3.4,3.5s-1.6,3.4-3.4,3.4S589,167.5,589,165.6z"/>
	<path class="st0" d="M636.2,210.6v0.7h-7.9v-14c-1.9,6.5-6.2,15-15.7,15c-5,0-11.3-3.4-10.7-10.1c1-12.3,24.1-18.4,26.4-19.9
		c0,0,0.7-8.6-6.9-8.6c-4.4,0-9.6,2.8-15.1,8.3l-1.9-4.9c4.8-3.2,12.4-4.3,16.3-4.3c3.6,0,13.1,0.6,13.1,13.7v22.1L636.2,210.6
		L636.2,210.6z M628.3,183.4c-6.8,3.3-20.7,8.4-20.7,18.5c0,4.2,2.8,8.1,7.7,8.1c7.7,0,12.3-11.2,13.1-18.1V183.4z"/>
	<path class="st0" d="M701.3,205.8c-3.9,3.9-8.2,6.5-15.2,6.5c-13.2,0-20.7-9.8-20.7-19.6s7.5-19.9,20.7-19.9c6.8,0,14,3.6,14,10.3
		c0,8.8-16,14.7-25.9,19.6c0.3,0.5,0.5,1,0.9,1.3l0.6,0.8c3.4,4.2,7.7,6.6,13.7,5.9c4.8-0.7,8.1-2.4,11.2-5.5L701.3,205.8
		L701.3,205.8z M671.3,195c0.4,2.1,1.2,4.5,2.3,6.7c10.1-5.1,20.8-9.4,20.8-19.4c0-7.5-6.1-9.6-12.2-8.1
		C673.4,176.4,669.5,185.9,671.3,195L671.3,195z"/>
	<path class="st0" d="M763.4,210.6v0.7h-10.3v-0.7l2.4-2V186c0-6.8-1.9-11.7-8-11.7s-10.5,4.8-11.3,11.2v23.2l2.4,2v0.7h-10.3v-0.7
		l2.4-2V186c0-6.8-1.9-11.7-8-11.7c-5.7,0-10.3,4.4-11.4,10.4v24l2.4,2v0.7h-10.3v-0.7l2.4-2v-30.5l-2.4-1.6v-0.7l7.2-3.1h0.7v5.6
		c4-3.6,8.2-5.6,13.4-5.6c4.1,0,8.3,2.2,10.3,6.8c3.8-4.2,8.9-6.8,14.5-6.8s11.5,3.9,11.5,13.5v22.2L763.4,210.6L763.4,210.6z"/>
	<path class="st0" d="M798.8,180.7c1.8,7.7,24.8,10.5,24.8,21.2c0,7.1-8.7,10.5-16.1,10.5c-5,0-11.3-1.4-16.4-4.9l1.8-5.6
		c4.3,5.7,10.5,9.4,16,9.4c5,0,10.3-1.6,10.3-6.9c0-9-24.3-10.9-24.8-21.6c-0.2-6.2,6.4-9.9,12.4-9.9c3.2,0,8.6,0.4,14.9,3.6
		l-1.9,5.6c-3.6-4.7-7.7-8.3-13.7-8.3C802.2,173.8,797.8,176.4,798.8,180.7L798.8,180.7z"/>
	<path class="st0" d="M861.8,205.8c-3.9,3.9-8.2,6.5-15.2,6.5c-13.2,0-20.7-9.8-20.7-19.6s7.5-19.9,20.7-19.9c6.8,0,14,3.6,14,10.3
		c0,8.8-16,14.7-25.9,19.6c0.3,0.5,0.5,1,0.9,1.3l0.6,0.8c3.4,4.2,7.7,6.6,13.7,5.9c4.8-0.7,8.1-2.4,11.2-5.5L861.8,205.8
		L861.8,205.8z M831.8,195c0.4,2.1,1.2,4.5,2.3,6.7c10.1-5.1,20.8-9.4,20.8-19.4c0-7.5-6.1-9.6-12.2-8.1
		C833.9,176.4,830,185.9,831.8,195L831.8,195z"/>
	<path class="st0" d="M891.9,174.1l-1.6,5.5c-3.3-3.6-6.4-4.7-8.9-4.7c-5.3,0-8.7,5.3-9.5,9.7v24l2.4,2v0.7H864v-0.7l2.3-2v-30.5
		l-2.3-1.6V176l7.2-3.1h0.7v5.6c4.2-3.8,8.5-5.6,13.7-5.6C887.8,172.9,890,173.2,891.9,174.1L891.9,174.1z"/>
	<path class="st0" d="M930.9,172.9v0.7l-5.2,3.1l-11.5,29.8l1.9,4.9h-6l-13.6-35.2l-3.9-2.5v-0.7h12.9v0.7l-3.2,2.2l11.4,29.4
		l11.1-28.7l-4.2-2.9v-0.7L930.9,172.9L930.9,172.9z"/>
	<path class="st0" d="M941.9,210.6v0.7h-10.3v-0.7l2.3-2v-30.5l-2.3-1.6v-0.7l7.2-3.1h0.7v35.8L941.9,210.6z M932.8,165.6
		c0-1.9,1.5-3.5,3.4-3.5s3.4,1.6,3.4,3.5s-1.6,3.4-3.4,3.4S932.8,167.5,932.8,165.6z"/>
	<path class="st0" d="M964.7,212.4l-1,3.1c5.1-0.8,8.9,1.5,9.3,4.6c0.7,5.5-8.5,8.9-13.1,3.7l0.6-0.7c3.1,3.6,9.1,2.9,8.4-2.3
		c-0.4-3.3-3.7-4.8-6.5-4.5l1.3-3.9c-11.5-1.3-18.1-10.4-18.1-19.4c0-9.7,7.5-20,20.7-20c4.1,0,6.9,0.7,10.7,1.4l1.9,6.6h-0.5
		c-3.4-4.5-9.1-8.2-16-6.7c-8.8,1.8-12.7,11.7-10.9,20.8c1.6,8,7.5,17,18.1,15.7c4.8-0.6,8.1-2.3,11.2-5.5l0.7,0.6
		c-3.8,4-8.2,6.5-15.2,6.5L964.7,212.4L964.7,212.4z"/>
	<path class="st0" d="M1021.7,192.9c0,9.7-6.5,19.5-19.7,19.5s-19.8-9.8-19.8-19.5s6.6-20,19.8-20S1021.7,183.2,1021.7,192.9z
		 M1015.9,190c-1.9-9.3-8.8-17.7-17.7-15.8c-8.8,1.9-11.8,11.7-10,20.9c1.9,9.4,8.8,17.9,17.8,15.9
		C1014.8,209.2,1017.8,199.1,1015.9,190L1015.9,190z"/>
	<path class="st0" d="M1088.4,210.6v0.7h-7.9v-1.8c-3.1,1.9-6.8,2.8-10.3,2.8c-14.3,0-20-11.1-20-20.3c0-9.7,6.9-19.2,20.1-19.2
		c3.1,0,7,0.9,10.3,2.1v-13.4l-2.4-1.6v-0.7l7.2-3.1h0.7v52.4L1088.4,210.6L1088.4,210.6z M1080.5,179c-3.3-3.6-7.8-5.1-11.8-5.1
		c-8.6,0-15.2,7.7-12.5,21.5c2,10.6,9.1,16.3,16.9,15.7c2.4-0.2,4.8-1,7.4-2.8L1080.5,179L1080.5,179z"/>
	<path class="st0" d="M1128,205.8c-3.9,3.9-8.2,6.5-15.2,6.5c-13.2,0-20.7-9.8-20.7-19.6s7.5-19.9,20.7-19.9c6.8,0,14,3.6,14,10.3
		c0,8.8-16,14.7-25.9,19.6c0.3,0.5,0.5,1,0.9,1.3l0.6,0.8c3.4,4.2,7.7,6.6,13.7,5.9c4.8-0.7,8.1-2.4,11.2-5.5L1128,205.8L1128,205.8
		z M1098,195c0.4,2.1,1.2,4.5,2.3,6.7c10.1-5.1,20.8-9.4,20.8-19.4c0-7.5-6.1-9.6-12.2-8.1C1100.1,176.4,1096.2,185.9,1098,195
		L1098,195z"/>
	<path class="st0" d="M1162,180.7c1.8,7.7,24.8,10.5,24.8,21.2c0,7.1-8.7,10.5-16.1,10.5c-5,0-11.3-1.4-16.4-4.9l1.8-5.6
		c4.3,5.7,10.5,9.4,16,9.4c5,0,10.3-1.6,10.3-6.9c0-9-24.3-10.9-24.8-21.6c-0.2-6.2,6.4-9.9,12.4-9.9c3.2,0,8.6,0.4,14.9,3.6
		l-1.9,5.6c-3.6-4.7-7.7-8.3-13.7-8.3C1165.4,173.8,1160.9,176.4,1162,180.7L1162,180.7z"/>
	<path class="st0" d="M1224.1,210.6v0.7h-7.9v-14c-1.9,6.5-6.2,15-15.7,15c-5.1,0-11.3-3.4-10.7-10.1c1-12.3,24.1-18.4,26.4-19.9
		c0,0,0.7-8.6-6.9-8.6c-4.4,0-9.6,2.8-15.1,8.3l-1.9-4.9c4.8-3.2,12.4-4.3,16.3-4.3c3.6,0,13.1,0.6,13.1,13.7v22.1L1224.1,210.6
		L1224.1,210.6z M1216.2,183.4c-6.8,3.3-20.7,8.4-20.7,18.5c0,4.2,2.8,8.1,7.7,8.1c7.7,0,12.3-11.2,13.1-18.1V183.4z"/>
	<path class="st0" d="M1265.7,210.6v0.7h-7.9v-4.8c-4,3.6-7.4,5.8-13.8,5.8c-7.1,0-13.7-3.8-13.7-13.4v-20.7l-2.4-1.6v-0.7l7.2-3.1
		h0.7v26.5c0,6.8,3.7,11.7,9.7,11.7s10.6-4,12.3-6.5v-26.5l-2.4-1.6v-0.7l7.3-3.1h0.7v35.8L1265.7,210.6L1265.7,210.6z
		 M1252.1,161.6c-5.3,3.1-9.3,4.9-11,5.6l-0.4-0.7c1.3-1.4,4.4-4.2,9-8.3c1.5-1.4,2.8-0.9,3.5,0
		C1253.8,159.2,1253.9,160.6,1252.1,161.6L1252.1,161.6z"/>
	<path class="st0" d="M1307.6,210.6v0.7h-7.9v-1.8c-3.1,1.9-6.8,2.8-10.3,2.8c-14.3,0-20-11.1-20-20.3c0-9.7,6.9-19.2,20.1-19.2
		c3.1,0,7,0.9,10.3,2.1v-13.4l-2.4-1.6v-0.7l7.2-3.1h0.7v52.4L1307.6,210.6L1307.6,210.6z M1299.7,179c-3.3-3.6-7.8-5.1-11.8-5.1
		c-8.6,0-15.2,7.7-12.5,21.5c2,10.6,9.1,16.3,16.9,15.7c2.4-0.2,4.8-1,7.4-2.8L1299.7,179L1299.7,179z"/>
	<path class="st0" d="M1347.2,205.8c-3.9,3.9-8.2,6.5-15.2,6.5c-13.2,0-20.7-9.8-20.7-19.6s7.5-19.9,20.7-19.9c6.8,0,14,3.6,14,10.3
		c0,8.8-16,14.7-25.9,19.6c0.3,0.5,0.5,1,0.9,1.3l0.6,0.8c3.4,4.2,7.7,6.6,13.7,5.9c4.8-0.7,8.1-2.4,11.2-5.5L1347.2,205.8
		L1347.2,205.8z M1317.2,195c0.4,2.1,1.2,4.5,2.3,6.7c10.1-5.1,20.8-9.4,20.8-19.4c0-7.5-6.1-9.6-12.2-8.1
		C1319.3,176.4,1315.4,185.9,1317.2,195L1317.2,195z"/>
</g>
</svg>
