<?xml version="1.0" encoding="utf-8"?>
<!-- Generator: Adobe Illustrator 28.0.0, SVG Export Plug-In . SVG Version: 6.00 Build 0)  -->
<svg version="1.1" id="Layer_1" xmlns="http://www.w3.org/2000/svg" xmlns:xlink="http://www.w3.org/1999/xlink" x="0px" y="0px"
	 viewBox="0 0 360 45" style="enable-background:new 0 0 360 45;" xml:space="preserve">
<style type="text/css">
	.st0{fill:#122561;}
</style>
<path class="st0" d="M20.5,10.5h6.2v0.4l-2.8,1.8V42h-1.5l-19-29v26.9l2.8,1.8V42H0v-0.4l2.8-1.8V12.7l-2.3-1.8v-0.4h5.2l17.7,26.9
	V12.7l-2.8-1.8v-0.4H20.5z M43.9,9.9c8.4,0,15.3,7.5,15.3,16.4s-7,16.4-15.3,16.4c-8.4,0-15.3-7.5-15.3-16.4
	C28.5,17.3,35.5,9.9,43.9,9.9z M46.4,41.7c7.2-1.3,10.4-9.5,9.1-17.6c-1.3-8.2-6.9-14.7-14.1-13.3c-7.3,1.3-10.4,9.4-9.1,17.6
	C33.6,36.6,39.1,43.1,46.4,41.7z M70.7,10.4c-3,0-6.3,1.5-6.3,5.2c0,4.3,3.8,5.8,7.1,7.6c5.2,2.7,11,4.6,11,10.9
	c0,5.8-5.4,8.5-11.1,8.5c-5,0-7.6-1-9.6-1.8L60.6,36H61c3.3,4.7,6.3,6.1,11.5,6.1c3.8,0,7.2-2.1,7.2-6.6c0-5.1-4.7-6.5-9.4-8.9
	c-3.7-1.9-8.7-4.4-8.7-9.3c0-5.7,5.8-7.5,9.6-7.5c2.5,0,5.7,0.5,8.6,1l1.3,4.9h-0.4C77.9,11.9,75.8,10.4,70.7,10.4z M94.5,10.4
	c-3,0-6.3,1.5-6.3,5.2c0,4.3,3.8,5.8,7.1,7.6c5.2,2.7,11,4.6,11,10.9c0,5.8-5.4,8.5-11.1,8.5c-5,0-7.6-1-9.6-1.8L84.4,36h0.4
	c3.3,4.7,6.3,6.1,11.5,6.1c3.8,0,7.2-2.1,7.2-6.6c0-5.1-4.7-6.5-9.4-8.9c-3.7-1.9-8.7-4.4-8.7-9.3c0-5.7,5.8-7.5,9.6-7.5
	c2.5,0,5.7,0.5,8.6,1l1.4,4.9h-0.4C101.7,11.9,99.6,10.4,94.5,10.4z M133.2,40.1l2.3,1.5V42H128v-0.4l1.7-1.3l-4.1-10.8H114l-4,10.3
	l2.3,1.8V42h-6v-0.4l3.2-1.8l9.9-25.9l-1.3-3.3h3.6L133.2,40.1z M114.2,29h11.2l-5.6-14.4L114.2,29z M184.8,10.9l-1.4,1.2v28.3
	l1.4,1.2V42h-6.2v-0.4l1.4-1.2V12l-11.4,30h-1.2l-11.8-28.4v26.2l2.8,1.8V42h-6.2v-0.4l2.8-1.8V12.7l-2.3-1.8v-0.4h5.1l11.6,27.7
	l10.5-27.7h4.8L184.8,10.9L184.8,10.9z M193.8,10.9l-1.4,1.2v28.3l1.4,1.2V42h-6.2v-0.4l1.4-1.2V12.1l-1.4-1.2v-0.4h6.2V10.9z
	 M205.7,10.4c-3,0-6.3,1.5-6.3,5.2c0,4.3,3.8,5.8,7.1,7.6c5.2,2.7,11,4.6,11,10.9c0,5.8-5.4,8.5-11.1,8.5c-5,0-7.6-1-9.6-1.8
	l-1.3-4.8h0.4c3.3,4.7,6.3,6.1,11.5,6.1c3.8,0,7.2-2.1,7.2-6.6c0-5.1-4.7-6.5-9.4-8.9c-3.7-1.9-8.7-4.4-8.7-9.3
	c0-5.7,5.9-7.5,9.6-7.5c2.5,0,5.7,0.5,8.6,1l1.4,4.9h-0.4C212.9,11.9,210.8,10.4,205.7,10.4z M229.5,10.4c-3,0-6.3,1.5-6.3,5.2
	c0,4.3,3.8,5.8,7.1,7.6c5.2,2.7,11,4.6,11,10.9c0,5.8-5.4,8.5-11.1,8.5c-4.9,0-7.6-1-9.6-1.8l-1.2-4.8h0.4c3.3,4.7,6.3,6.1,11.5,6.1
	c3.8,0,7.2-2.1,7.2-6.6c0-5.1-4.7-6.5-9.4-8.9c-3.7-1.9-8.7-4.4-8.7-9.3c0-5.7,5.8-7.5,9.6-7.5c2.5,0,5.7,0.5,8.6,1l1.4,4.9h-0.4
	C236.7,11.9,234.6,10.4,229.5,10.4z M268.2,40.1l2.3,1.5V42H263v-0.4l1.7-1.3l-4.1-10.8H249l-4,10.3l2.3,1.8V42h-6v-0.4l3.2-1.8
	l9.9-25.9l-1.3-3.3h3.6L268.2,40.1z M249.2,29h11.2l-5.6-14.4L249.2,29z M262.2,1.8l0.3,0.1c-0.7,2.4-1.8,4.4-3.9,4.4
	c-2.7,0-5.5-2.1-7.3-2c-1.2,0-1.6,0.5-2.2,2.3l-0.4-0.1c0.8-2.7,1.9-4.2,4-4.2c2.7,0,4.7,2,7.2,2C261,4.2,261.6,3.8,262.2,1.8z
	 M285,9.9c8.4,0,15.3,7.5,15.3,16.4s-7,16.4-15.3,16.4s-15.3-7.5-15.3-16.4C269.7,17.3,276.6,9.9,285,9.9z M287.6,41.7
	c7.2-1.3,10.4-9.5,9.1-17.6c-1.4-8.2-6.9-14.7-14.2-13.3c-7.3,1.3-10.4,9.4-9.1,17.6S280.3,43.1,287.6,41.7z"/>
</svg>
