<svg width="301" height="43" viewBox="0 0 301 43" fill="none" xmlns="http://www.w3.org/2000/svg">
<path d="M20.6163 9.5H26.8263V9.905L23.9913 11.66V41H22.5063L3.47129 11.975V38.84L6.30629 40.595V41H0.0962891V40.595L2.93129 38.84V11.66L0.636289 9.905V9.5H5.85629L23.4513 36.365V11.66L20.6163 9.905V9.5ZM43.9723 8.87C52.3423 8.87 59.3173 16.34 59.3173 25.25C59.3173 34.115 52.3423 41.63 43.9723 41.63C35.6023 41.63 28.6273 34.115 28.6273 25.25C28.6273 16.34 35.6023 8.87 43.9723 8.87ZM46.5373 40.73C53.7823 39.38 56.9323 31.28 55.6273 23.09C54.2773 14.9 48.6973 8.42 41.4523 9.77C34.1623 11.12 31.0123 19.22 32.3623 27.41C33.7123 35.6 39.2473 42.08 46.5373 40.73ZM70.8113 9.41C67.8413 9.41 64.4663 10.94 64.5113 14.63C64.5113 18.95 68.3363 20.48 71.6213 22.235C76.8413 24.935 82.6463 26.87 82.6463 33.17C82.6463 38.975 77.2463 41.63 71.5313 41.63C66.5813 41.63 63.9263 40.595 61.9463 39.83L60.6863 35.015H61.0463C64.3313 39.695 67.3463 41.09 72.5663 41.09C76.3463 41.09 79.7663 38.975 79.7663 34.52C79.7213 29.39 75.0413 28.04 70.3613 25.655C66.6263 23.765 61.6763 21.29 61.6763 16.34C61.6763 10.625 67.5263 8.87 71.3063 8.87C73.7813 8.87 77.0213 9.365 79.9013 9.86L81.2513 14.72H80.8463C78.0113 10.895 75.8963 9.41 70.8113 9.41ZM94.5857 9.41C91.6157 9.41 88.2407 10.94 88.2857 14.63C88.2857 18.95 92.1107 20.48 95.3957 22.235C100.616 24.935 106.421 26.87 106.421 33.17C106.421 38.975 101.021 41.63 95.3057 41.63C90.3557 41.63 87.7007 40.595 85.7207 39.83L84.4607 35.015H84.8207C88.1057 39.695 91.1207 41.09 96.3407 41.09C100.121 41.09 103.541 38.975 103.541 34.52C103.496 29.39 98.8157 28.04 94.1357 25.655C90.4007 23.765 85.4507 21.29 85.4507 16.34C85.4507 10.625 91.3007 8.87 95.0807 8.87C97.5557 8.87 100.796 9.365 103.676 9.86L105.026 14.72H104.621C101.786 10.895 99.6707 9.41 94.5857 9.41ZM133.298 39.065L135.638 40.595V41H128.123V40.595L129.788 39.335L125.648 28.58H114.083L110.123 38.84L112.418 40.595V41H106.433V40.595L109.583 38.75L119.528 12.83L118.223 9.5H121.823L133.298 39.065ZM114.263 28.04H125.423L119.843 13.595L114.263 28.04ZM184.946 9.905L183.506 11.12V39.38L184.946 40.595V41H178.736V40.595L180.176 39.38V11.03L168.791 41H167.621L155.786 12.65V38.84L158.621 40.595V41H152.411V40.595L155.246 38.84V11.66L152.951 9.905V9.5H158.081L169.691 37.175L180.176 9.5H184.946V9.905ZM193.875 9.905L192.435 11.12V39.38L193.875 40.595V41H187.665V40.595L189.06 39.38V11.12L187.665 9.905V9.5H193.875V9.905ZM205.811 9.41C202.841 9.41 199.466 10.94 199.511 14.63C199.511 18.95 203.336 20.48 206.621 22.235C211.841 24.935 217.646 26.87 217.646 33.17C217.646 38.975 212.246 41.63 206.531 41.63C201.581 41.63 198.926 40.595 196.946 39.83L195.686 35.015H196.046C199.331 39.695 202.346 41.09 207.566 41.09C211.346 41.09 214.766 38.975 214.766 34.52C214.721 29.39 210.041 28.04 205.361 25.655C201.626 23.765 196.676 21.29 196.676 16.34C196.676 10.625 202.526 8.87 206.306 8.87C208.781 8.87 212.021 9.365 214.901 9.86L216.251 14.72H215.846C213.011 10.895 210.896 9.41 205.811 9.41ZM229.586 9.41C226.616 9.41 223.241 10.94 223.286 14.63C223.286 18.95 227.111 20.48 230.396 22.235C235.616 24.935 241.421 26.87 241.421 33.17C241.421 38.975 236.021 41.63 230.306 41.63C225.356 41.63 222.701 40.595 220.721 39.83L219.461 35.015H219.821C223.106 39.695 226.121 41.09 231.341 41.09C235.121 41.09 238.541 38.975 238.541 34.52C238.496 29.39 233.816 28.04 229.136 25.655C225.401 23.765 220.451 21.29 220.451 16.34C220.451 10.625 226.301 8.87 230.081 8.87C232.556 8.87 235.796 9.365 238.676 9.86L240.026 14.72H239.621C236.786 10.895 234.671 9.41 229.586 9.41ZM268.298 39.065L270.638 40.595V41H263.123V40.595L264.788 39.335L260.648 28.58H249.083L245.123 38.84L247.418 40.595V41H241.433V40.595L244.583 38.75L254.528 12.83L253.223 9.5H256.823L268.298 39.065ZM249.263 28.04H260.423L254.843 13.595L249.263 28.04ZM262.313 0.814997L262.628 0.949998C261.908 3.38 260.828 5.36 258.758 5.36C256.013 5.36 253.268 3.29 251.423 3.335C250.208 3.335 249.803 3.83 249.263 5.63L248.903 5.495C249.713 2.75 250.793 1.31 252.908 1.31C255.653 1.31 257.633 3.335 260.153 3.29C261.098 3.245 261.728 2.84 262.313 0.814997ZM285.1 8.87C293.47 8.87 300.445 16.34 300.445 25.25C300.445 34.115 293.47 41.63 285.1 41.63C276.73 41.63 269.755 34.115 269.755 25.25C269.755 16.34 276.73 8.87 285.1 8.87ZM287.665 40.73C294.91 39.38 298.06 31.28 296.755 23.09C295.405 14.9 289.825 8.42 282.58 9.77C275.29 11.12 272.14 19.22 273.49 27.41C274.84 35.6 280.375 42.08 287.665 40.73Z" fill="#122561"/>
</svg>
