<?xml version="1.0" encoding="utf-8"?>
<!-- Generator: Adobe Illustrator 28.0.0, SVG Export Plug-In . SVG Version: 6.00 Build 0)  -->
<svg version="1.1" id="Layer_1" xmlns="http://www.w3.org/2000/svg" xmlns:xlink="http://www.w3.org/1999/xlink" x="0px" y="0px"
	 viewBox="0 0 360 45" style="enable-background:new 0 0 360 45;" xml:space="preserve">
<style type="text/css">
	.st0{fill:#122561;}
</style>
<path class="st0" d="M50.1,10.5h6.2v0.4l-2.8,1.8V42H52L33,13v26.9l2.8,1.8V42h-6.2v-0.4l2.8-1.8V12.7l-2.3-1.8v-0.4h5.2L53,37.4
	V12.7l-2.8-1.8V10.5z M73.5,9.9c8.4,0,15.3,7.5,15.3,16.4c0,8.9-7,16.4-15.3,16.4c-8.4,0-15.3-7.5-15.3-16.4
	C58.1,17.3,65.1,9.9,73.5,9.9z M76,41.7c7.2-1.3,10.4-9.5,9.1-17.6C83.8,15.9,78.2,9.4,71,10.8c-7.3,1.3-10.4,9.4-9.1,17.6
	C63.2,36.6,68.7,43.1,76,41.7z M100.3,10.4c-3,0-6.3,1.5-6.3,5.2c0,4.3,3.8,5.8,7.1,7.6c5.2,2.7,11,4.6,11,10.9
	c0,5.8-5.4,8.5-11.1,8.5c-5,0-7.6-1-9.6-1.8L90.2,36h0.4c3.3,4.7,6.3,6.1,11.5,6.1c3.8,0,7.2-2.1,7.2-6.6c0-5.1-4.7-6.5-9.4-8.9
	c-3.7-1.9-8.7-4.4-8.7-9.3c0-5.7,5.8-7.5,9.6-7.5c2.5,0,5.7,0.5,8.6,1l1.3,4.9h-0.4C107.5,11.9,105.4,10.4,100.3,10.4z M124.1,10.4
	c-3,0-6.3,1.5-6.3,5.2c0,4.3,3.8,5.8,7.1,7.6c5.2,2.7,11,4.6,11,10.9c0,5.8-5.4,8.5-11.1,8.5c-5,0-7.6-1-9.6-1.8L114,36h0.4
	c3.3,4.7,6.3,6.1,11.5,6.1c3.8,0,7.2-2.1,7.2-6.6c0-5.1-4.7-6.5-9.4-8.9c-3.7-1.9-8.7-4.4-8.7-9.3c0-5.7,5.8-7.5,9.6-7.5
	c2.5,0,5.7,0.5,8.6,1l1.4,4.9h-0.4C131.3,11.9,129.2,10.4,124.1,10.4z M162.8,40.1l2.3,1.5V42h-7.5v-0.4l1.7-1.3l-4.1-10.8h-11.6
	l-4,10.3l2.3,1.8V42h-6v-0.4l3.2-1.8l9.9-25.9l-1.3-3.3h3.6L162.8,40.1z M143.8,29h11.2l-5.6-14.4L143.8,29z M214.4,10.9l-1.4,1.2
	v28.3l1.4,1.2V42h-6.2v-0.4l1.4-1.2V12l-11.4,30h-1.2l-11.8-28.4v26.2l2.8,1.8V42h-6.2v-0.4l2.8-1.8V12.7l-2.3-1.8v-0.4h5.1
	l11.6,27.7l10.5-27.7h4.8V10.9z M223.4,10.9l-1.4,1.2v28.3l1.4,1.2V42h-6.2v-0.4l1.4-1.2V12.1l-1.4-1.2v-0.4h6.2V10.9z M235.3,10.4
	c-3,0-6.3,1.5-6.3,5.2c0,4.3,3.8,5.8,7.1,7.6c5.2,2.7,11,4.6,11,10.9c0,5.8-5.4,8.5-11.1,8.5c-5,0-7.6-1-9.6-1.8l-1.3-4.8h0.4
	c3.3,4.7,6.3,6.1,11.5,6.1c3.8,0,7.2-2.1,7.2-6.6c0-5.1-4.7-6.5-9.4-8.9c-3.7-1.9-8.7-4.4-8.7-9.3c0-5.7,5.9-7.5,9.6-7.5
	c2.5,0,5.7,0.5,8.6,1l1.4,4.9h-0.4C242.5,11.9,240.4,10.4,235.3,10.4z M259.1,10.4c-3,0-6.3,1.5-6.3,5.2c0,4.3,3.8,5.8,7.1,7.6
	c5.2,2.7,11,4.6,11,10.9c0,5.8-5.4,8.5-11.1,8.5c-4.9,0-7.6-1-9.6-1.8L249,36h0.4c3.3,4.7,6.3,6.1,11.5,6.1c3.8,0,7.2-2.1,7.2-6.6
	c0-5.1-4.7-6.5-9.4-8.9c-3.7-1.9-8.7-4.4-8.7-9.3c0-5.7,5.8-7.5,9.6-7.5c2.5,0,5.7,0.5,8.6,1l1.4,4.9h-0.4
	C266.3,11.9,264.2,10.4,259.1,10.4z M297.8,40.1l2.3,1.5V42h-7.5v-0.4l1.7-1.3l-4.1-10.8h-11.6l-4,10.3l2.3,1.8V42h-6v-0.4l3.2-1.8
	l9.9-25.9l-1.3-3.3h3.6L297.8,40.1z M278.8,29h11.2l-5.6-14.4L278.8,29z M291.8,1.8l0.3,0.1c-0.7,2.4-1.8,4.4-3.9,4.4
	c-2.7,0-5.5-2.1-7.3-2c-1.2,0-1.6,0.5-2.2,2.3l-0.4-0.1c0.8-2.7,1.9-4.2,4-4.2c2.7,0,4.7,2,7.2,2C290.6,4.2,291.2,3.8,291.8,1.8z
	 M314.6,9.9c8.4,0,15.3,7.5,15.3,16.4c0,8.9-7,16.4-15.3,16.4s-15.3-7.5-15.3-16.4C299.3,17.3,306.2,9.9,314.6,9.9z M317.2,41.7
	c7.2-1.3,10.4-9.5,9.1-17.6c-1.4-8.2-6.9-14.7-14.2-13.3c-7.3,1.3-10.4,9.4-9.1,17.6C304.3,36.6,309.9,43.1,317.2,41.7z"/>
</svg>
