<?xml version="1.0" encoding="utf-8"?>
<!-- Generator: Adobe Illustrator 28.0.0, SVG Export Plug-In . SVG Version: 6.00 Build 0)  -->
<svg version="1.1" id="Layer_1" xmlns="http://www.w3.org/2000/svg" xmlns:xlink="http://www.w3.org/1999/xlink" x="0px" y="0px"
	 viewBox="0 0 450.2 45" style="enable-background:new 0 0 450.2 45;" xml:space="preserve">
<style type="text/css">
	.st0{fill:#B29220;}
</style>
<g>
	<path class="st0" d="M24,12.7c0,6.9-6.4,9.5-12.5,9.5H6.6v10.6L8,34v0.4H1.9V34l1.4-1.2v-28L1.9,3.6V3.2h9.6
		C17.7,3.2,24,5.8,24,12.7z M20.5,12.7c0-5.6-3.4-9-9-9H6.6v17.9h4.9C17.1,21.6,20.5,18.2,20.5,12.7z"/>
	<path class="st0" d="M56.7,18.8c0,8.8-6.9,16.2-15.2,16.2s-15.2-7.4-15.2-16.2c0-8.8,6.9-16.2,15.2-16.2S56.7,9.9,56.7,18.8z
		 M53,16.6C51.7,8.5,46.1,2.1,39,3.4c-7.2,1.3-10.3,9.4-9,17.5c1.3,8.1,6.8,14.5,14,13.2C51.2,32.8,54.3,24.8,53,16.6z"/>
	<path class="st0" d="M82.7,34v0.4h-6.9V34l1.1-1.3l-6.7-10.6c-0.5,0-1.1,0.1-1.6,0.1h-4.6v10.6l1.4,1.2v0.4h-6.2V34l1.4-1.2v-28
		l-1.4-1.2V3.2H69c6.2,0,12.5,2.6,12.5,9.5c0,4.4-3.5,7.4-7.8,8.7l6.9,10.8L82.7,34z M68.7,21.6c5.6,0,9.2-3.4,9.2-9s-3.4-9-9-9
		h-4.9v17.9H68.7z"/>
	<path class="st0" d="M114.2,35.5l15.2,2.7l-3.2,4.1l-17.3-8.8c-0.1-0.1-0.3-0.2-0.4-0.3c-4.9-2.8-8.3-8.2-8.3-14.4
		c0-8.8,6.9-16.2,15.2-16.2s15.2,7.4,15.2,16.2c0,8.8-6.9,16.2-15.2,16.2c-0.4,0-0.8,0-1.2,0V35.5z M118,34.1
		c7.2-1.3,10.3-9.4,9-17.5c-1.3-8.1-6.8-14.5-14-13.2c-7.2,1.3-10.3,9.4-9,17.5C105.3,29,110.8,35.5,118,34.1z"/>
	<path class="st0" d="M159.2,3.2v0.4l-2.5,1.7v18.9c0,6.2-4.1,10.7-10.4,10.7c-6.6,0-11.5-3.7-11.5-11.8V4.8l-1.4-1.2V3.2h6.2v0.4
		l-1.4,1.2v18.4c0,7.4,3.2,11.5,9.7,11c5.5-0.4,8.3-4.9,8.3-9.9V5.3l-2.8-1.7V3.2H159.2z"/>
	<path class="st0" d="M182.1,29.5l-1,4.9h-19.7V34l1.4-1.2v-28l-1.4-1.2V3.2h18.8l1,4.9h-0.4l-3.2-4.3h-11.5v11.5h8.5l1.5-2.3h0.4
		V18h-0.4l-1.5-2.3h-8.5v18.1h12.4l3.2-4.4H182.1z"/>
	<path class="st0" d="M220.3,29.5l-1,4.9h-19.7V34l1.4-1.2v-28l-1.4-1.2V3.2h18.8l1,4.9H219l-3.2-4.3h-11.5v11.5h8.5l1.5-2.3h0.4V18
		h-0.4l-1.5-2.3h-8.5v18.1h12.4l3.2-4.4H220.3z"/>
	<path class="st0" d="M225.4,8.3c0,4.3,3.8,5.8,7,7.5c5.2,2.7,10.9,4.6,10.9,10.8c0,5.8-5.3,8.4-11,8.4c-4.9,0-7.5-1-9.5-1.8
		l-1.2-4.8h0.4c3.3,4.6,6.2,6,11.4,6c3.7,0,7.1-2.1,7.1-6.5c0-5.1-4.7-6.4-9.3-8.8c-3.7-1.9-8.6-4.3-8.6-9.2c0-5.7,5.8-7.4,9.5-7.4
		c2.5,0,5.7,0.5,8.5,1l1.3,4.8h-0.4c-2.8-3.8-4.9-5.3-9.9-5.3C228.7,3.1,225.4,4.6,225.4,8.3z"/>
	<path class="st0" d="M273.3,29.6c-2.7,3.1-6.4,5.4-11.8,5.4c-9,0-15.4-7.4-15.4-16.2c0-8.8,7.2-16.2,15.5-16.2c2.7,0,5.5,0.5,8,1
		l1.3,4.7h-0.4c-2.8-4-7.3-5.7-11.5-4.8c-7.2,1.4-10.6,9.4-9.2,17.5c1.2,7.1,6.2,14.1,14.5,12.9c3.4-0.5,6.2-2.2,8.5-4.7L273.3,29.6
		z"/>
	<path class="st0" d="M304.6,18.8c0,8.8-6.9,16.2-15.2,16.2c-8.3,0-15.2-7.4-15.2-16.2c0-8.8,6.9-16.2,15.2-16.2
		C297.6,2.5,304.6,9.9,304.6,18.8z M300.9,16.6c-1.3-8.1-6.9-14.5-14-13.2c-7.2,1.3-10.3,9.4-9,17.5c1.3,8.1,6.8,14.5,14,13.2
		C299.1,32.8,302.2,24.8,300.9,16.6z"/>
	<path class="st0" d="M327.9,29.5l-1,4.9h-19.7V34l1.4-1.2v-28l-1.4-1.2V3.2h6.2v0.4L312,4.8v29.1h12.4l3.2-4.4H327.9z"/>
	<path class="st0" d="M353.3,4.8v28l1.4,1.2v0.4h-6.2V34l1.4-1.2v-17h-15.1v17l1.4,1.2v0.4h-6.2V34l1.4-1.2v-28l-1.4-1.2V3.2h6.2
		v0.4l-1.4,1.2v10.4H350V4.8l-1.4-1.2V3.2h6.2v0.4L353.3,4.8z"/>
	<path class="st0" d="M378.1,29.5l-1,4.9h-19.7V34l1.4-1.2v-28l-1.4-1.2V3.2h18.8l1,4.9h-0.4l-3.2-4.3h-11.5v11.5h8.5l1.5-2.3h0.4
		V18h-0.4l-1.5-2.3h-8.5v18.1h12.4l3.2-4.4H378.1z"/>
	<path class="st0" d="M403.7,34v0.4h-6.9V34l1.1-1.3l-6.7-10.6c-0.5,0-1.1,0.1-1.6,0.1H385v10.6l1.4,1.2v0.4h-6.2V34l1.4-1.2v-28
		l-1.4-1.2V3.2h9.6c6.2,0,12.5,2.6,12.5,9.5c0,4.4-3.5,7.4-7.8,8.7l6.9,10.8L403.7,34z M389.7,21.6c5.6,0,9.2-3.4,9.2-9s-3.4-9-9-9
		H385v17.9H389.7z"/>
	<path class="st0" d="M449.3,34v0.4h-7.4V34l1.6-1.2l-4.1-10.7h-11.5L424,32.2l2.3,1.7v0.4h-5.9V34l3.1-1.8l9.9-25.7L432,3.2h3.6
		l11.4,29.3L449.3,34z M439.1,21.5l-5.5-14.3l-5.5,14.3H439.1z"/>
</g>
</svg>
