<svg width="282" height="41" viewBox="0 0 282 41" fill="none" xmlns="http://www.w3.org/2000/svg">
<path d="M14.935 33.585V34.08L30.325 36.78L27.13 40.965L9.715 32.1C9.58 32.01 9.4 31.92 9.265 31.83C4.315 29.04 0.85 23.505 0.85 17.25C0.85 8.34 7.825 0.869998 16.195 0.869998C24.565 0.869998 31.54 8.34 31.54 17.25C31.54 26.115 24.565 33.63 16.195 33.63C15.79 33.63 15.34 33.63 14.935 33.585ZM4.585 19.41C5.935 27.6 11.47 34.08 18.76 32.73C26.005 31.38 29.2 23.28 27.85 15.09C26.5 6.9 20.965 0.419998 13.675 1.77C6.385 3.12 3.235 11.22 4.585 19.41ZM54.3634 1.5H60.3034V1.905L57.7384 3.66V22.785C57.7384 29.04 53.5984 33.63 47.2534 33.63C40.5484 33.63 35.6884 29.895 35.6884 21.705V3.12L34.2484 1.905V1.5H40.4584V1.905L39.0634 3.12V21.705C39.0634 29.13 42.3034 33.36 48.8284 32.82C54.3634 32.37 57.1984 27.825 57.1984 22.785V3.66L54.3634 1.905V1.5ZM83.0242 28.05H83.4292L82.4392 33H62.5492V32.595L63.9892 31.38V3.12L62.5492 1.905V1.5H81.5392L82.5292 6.405H82.1242L78.9292 2.04H67.3192V13.65H75.8692L77.3542 11.355H77.7592V16.485H77.3542L75.8692 14.19H67.3192V32.46H79.8292L83.0242 28.05ZM117.749 1.905L116.309 3.12V31.38L117.749 32.595V33H111.539V32.595L112.979 31.38V3.03L101.594 33H100.424L88.5895 4.65V30.84L91.4245 32.595V33H85.2145V32.595L88.0495 30.84V3.66L85.7545 1.905V1.5H90.8845L102.494 29.175L112.979 1.5H117.749V1.905ZM145.119 1.41C142.149 1.41 138.774 2.94 138.819 6.63C138.819 10.95 142.644 12.48 145.929 14.235C151.149 16.935 156.954 18.87 156.954 25.17C156.954 30.975 151.554 33.63 145.839 33.63C140.889 33.63 138.234 32.595 136.254 31.83L134.994 27.015H135.354C138.639 31.695 141.654 33.09 146.874 33.09C150.654 33.09 154.074 30.975 154.074 26.52C154.029 21.39 149.349 20.04 144.669 17.655C140.934 15.765 135.984 13.29 135.984 8.34C135.984 2.625 141.834 0.869998 145.614 0.869998C148.089 0.869998 151.329 1.365 154.209 1.86L155.559 6.72H155.154C152.319 2.895 150.204 1.41 145.119 1.41ZM175.013 0.869998C183.383 0.869998 190.358 8.34 190.358 17.25C190.358 26.115 183.383 33.63 175.013 33.63C166.643 33.63 159.668 26.115 159.668 17.25C159.668 8.34 166.643 0.869998 175.013 0.869998ZM177.578 32.73C184.823 31.38 187.973 23.28 186.668 15.09C185.318 6.9 179.738 0.419998 172.493 1.77C165.203 3.12 162.053 11.22 163.403 19.41C164.753 27.6 170.288 34.08 177.578 32.73ZM224.712 1.905L223.272 3.12V31.38L224.712 32.595V33H218.502V32.595L219.942 31.38V3.03L208.557 33H207.387L195.552 4.65V30.84L198.387 32.595V33H192.177V32.595L195.012 30.84V3.66L192.717 1.905V1.5H197.847L209.457 29.175L219.942 1.5H224.712V1.905ZM242.777 0.869998C251.147 0.869998 258.122 8.34 258.122 17.25C258.122 26.115 251.147 33.63 242.777 33.63C234.407 33.63 227.432 26.115 227.432 17.25C227.432 8.34 234.407 0.869998 242.777 0.869998ZM245.342 32.73C252.587 31.38 255.737 23.28 254.432 15.09C253.082 6.9 247.502 0.419998 240.257 1.77C232.967 3.12 229.817 11.22 231.167 19.41C232.517 27.6 238.052 34.08 245.342 32.73ZM269.616 1.41C266.646 1.41 263.271 2.94 263.316 6.63C263.316 10.95 267.141 12.48 270.426 14.235C275.646 16.935 281.451 18.87 281.451 25.17C281.451 30.975 276.051 33.63 270.336 33.63C265.386 33.63 262.731 32.595 260.751 31.83L259.491 27.015H259.851C263.136 31.695 266.151 33.09 271.371 33.09C275.151 33.09 278.571 30.975 278.571 26.52C278.526 21.39 273.846 20.04 269.166 17.655C265.431 15.765 260.481 13.29 260.481 8.34C260.481 2.625 266.331 0.869998 270.111 0.869998C272.586 0.869998 275.826 1.365 278.706 1.86L280.056 6.72H279.651C276.816 2.895 274.701 1.41 269.616 1.41Z" fill="#B29220"/>
</svg>
