<?xml version="1.0" encoding="utf-8"?>
<!-- Generator: Adobe Illustrator 28.0.0, SVG Export Plug-In . SVG Version: 6.00 Build 0)  -->
<svg version="1.1" id="Layer_1" xmlns="http://www.w3.org/2000/svg" xmlns:xlink="http://www.w3.org/1999/xlink" x="0px" y="0px"
	 viewBox="0 0 360 45" style="enable-background:new 0 0 360 45;" xml:space="preserve">
<style type="text/css">
	.st0{fill:#B29220;}
</style>
<path class="st0" d="M53.9,35.6v0.5l15.4,2.7L66.1,43l-17.4-8.9c-0.1-0.1-0.3-0.2-0.5-0.3c-5-2.8-8.4-8.3-8.4-14.6
	c0-8.9,7-16.4,15.3-16.4s15.3,7.5,15.3,16.4c0,8.9-7,16.4-15.3,16.4C54.8,35.6,54.3,35.6,53.9,35.6z M43.6,21.4
	c1.4,8.2,6.9,14.7,14.2,13.3c7.2-1.4,10.4-9.4,9.1-17.6S60,2.4,52.7,3.8C45.4,5.1,42.2,13.2,43.6,21.4z M93.4,3.5h5.9v0.4l-2.6,1.8
	v19.1c0,6.3-4.1,10.8-10.5,10.8c-6.7,0-11.6-3.7-11.6-11.9V5.1l-1.4-1.2V3.5h6.2v0.4l-1.4,1.2v18.6c0,7.4,3.2,11.7,9.8,11.1
	c5.5-0.5,8.4-5,8.4-10V5.7l-2.8-1.8V3.5z M122,30h0.4l-1,5h-19.9v-0.4l1.4-1.2V5.1l-1.4-1.2V3.5h19l1,4.9h-0.4L117.9,4h-11.6v11.6
	h8.6l1.5-2.3h0.4v5.1h-0.4l-1.5-2.3h-8.6v18.3h12.5L122,30z M156.7,3.9l-1.4,1.2v28.3l1.4,1.2V35h-6.2v-0.4l1.4-1.2V5l-11.4,30h-1.2
	L127.6,6.7v26.2l2.8,1.8V35h-6.2v-0.4l2.8-1.8V5.7l-2.3-1.8V3.5h5.1l11.6,27.7L152,3.5h4.8V3.9z M184.1,3.4c-3,0-6.3,1.5-6.3,5.2
	c0,4.3,3.8,5.8,7.1,7.6c5.2,2.7,11,4.6,11,10.9c0,5.8-5.4,8.5-11.1,8.5c-4.9,0-7.6-1-9.6-1.8L174,29h0.4c3.3,4.7,6.3,6.1,11.5,6.1
	c3.8,0,7.2-2.1,7.2-6.6c0-5.1-4.7-6.5-9.4-8.9c-3.7-1.9-8.7-4.4-8.7-9.3c0-5.7,5.9-7.5,9.6-7.5c2.5,0,5.7,0.5,8.6,1l1.4,4.9h-0.4
	C191.3,4.9,189.2,3.4,184.1,3.4z M214,2.9c8.4,0,15.3,7.5,15.3,16.4c0,8.9-7,16.4-15.3,16.4s-15.3-7.5-15.3-16.4
	C198.7,10.3,205.6,2.9,214,2.9z M216.6,34.7c7.2-1.4,10.4-9.4,9.1-17.6c-1.4-8.2-6.9-14.7-14.2-13.3c-7.3,1.3-10.4,9.5-9.1,17.6
	S209.3,36.1,216.6,34.7z M263.7,3.9l-1.4,1.2v28.3l1.4,1.2V35h-6.2v-0.4l1.4-1.2V5l-11.4,30h-1.2L234.6,6.7v26.2l2.8,1.8V35h-6.2
	v-0.4l2.8-1.8V5.7l-2.3-1.8V3.5h5.1l11.6,27.7l10.5-27.7h4.8V3.9z M281.8,2.9c8.4,0,15.3,7.5,15.3,16.4c0,8.9-7,16.4-15.3,16.4
	c-8.4,0-15.3-7.5-15.3-16.4C266.4,10.3,273.4,2.9,281.8,2.9z M284.3,34.7c7.2-1.4,10.4-9.4,9.1-17.6c-1.4-8.2-6.9-14.7-14.2-13.3
	c-7.3,1.3-10.4,9.5-9.1,17.6C271.5,29.6,277.1,36.1,284.3,34.7z M308.6,3.4c-3,0-6.3,1.5-6.3,5.2c0,4.3,3.8,5.8,7.1,7.6
	c5.2,2.7,11,4.6,11,10.9c0,5.8-5.4,8.5-11.1,8.5c-5,0-7.6-1-9.6-1.8l-1.3-4.8h0.4c3.3,4.7,6.3,6.1,11.5,6.1c3.8,0,7.2-2.1,7.2-6.6
	c0-5.1-4.7-6.5-9.4-8.9c-3.7-1.9-8.7-4.4-8.7-9.3c0-5.7,5.9-7.5,9.6-7.5c2.5,0,5.7,0.5,8.6,1l1.4,4.9h-0.4
	C315.8,4.9,313.7,3.4,308.6,3.4z"/>
</svg>
