<?xml version="1.0" encoding="utf-8"?>
<!-- Generator: Adobe Illustrator 28.0.0, SVG Export Plug-In . SVG Version: 6.00 Build 0)  -->
<svg version="1.1" id="Layer_1" xmlns="http://www.w3.org/2000/svg" xmlns:xlink="http://www.w3.org/1999/xlink" x="0px" y="0px"
	 viewBox="0 0 360 45" style="enable-background:new 0 0 360 45;" xml:space="preserve">
<style type="text/css">
	.st0{fill:#122561;}
</style>
<path class="st0" d="M21.6,6.5h6.2v0.4l-2.8,1.8V38h-1.5L4.4,9v26.9l2.8,1.8V38H1v-0.4l2.8-1.8V8.7L1.6,6.9V6.5h5.2l17.6,26.9V8.7
	l-2.8-1.8V6.5z M44.9,5.9c8.4,0,15.3,7.5,15.3,16.4c0,8.9-7,16.4-15.3,16.4s-15.3-7.5-15.3-16.4C29.6,13.3,36.5,5.9,44.9,5.9z
	 M47.5,37.7c7.2-1.4,10.4-9.4,9.1-17.6c-1.4-8.2-6.9-14.7-14.2-13.3c-7.3,1.3-10.4,9.5-9.1,17.6C34.6,32.6,40.2,39.1,47.5,37.7z
	 M71.7,6.4c-3,0-6.3,1.5-6.3,5.2c0,4.3,3.8,5.8,7.1,7.6c5.2,2.7,11,4.6,11,10.9c0,5.8-5.4,8.5-11.1,8.5c-5,0-7.6-1-9.6-1.8L61.6,32
	H62c3.3,4.7,6.3,6.1,11.5,6.1c3.8,0,7.2-2.1,7.2-6.6c0-5.1-4.7-6.5-9.4-8.9c-3.7-1.9-8.7-4.4-8.7-9.3c0-5.7,5.8-7.5,9.6-7.5
	c2.5,0,5.7,0.5,8.6,1l1.3,4.9h-0.4C78.9,7.9,76.8,6.4,71.7,6.4z M95.5,6.4c-3,0-6.3,1.5-6.3,5.2c0,4.3,3.8,5.8,7.1,7.6
	c5.2,2.7,11,4.6,11,10.9c0,5.8-5.4,8.5-11.1,8.5c-5,0-7.6-1-9.6-1.8L85.4,32h0.4c3.3,4.7,6.3,6.1,11.5,6.1c3.8,0,7.2-2.1,7.2-6.6
	c0-5.1-4.7-6.5-9.4-8.9c-3.7-1.9-8.7-4.4-8.7-9.3c0-5.7,5.8-7.5,9.6-7.5c2.5,0,5.7,0.5,8.6,1l1.3,4.9h-0.4
	C102.7,7.9,100.6,6.4,95.5,6.4z M125.4,5.9c8.4,0,15.3,7.5,15.3,16.4c0,8.9-7,16.4-15.3,16.4s-15.3-7.5-15.3-16.4
	C110.1,13.3,117,5.9,125.4,5.9z M128,37.7c7.2-1.4,10.4-9.4,9.1-17.6c-1.4-8.2-6.9-14.7-14.2-13.3c-7.3,1.3-10.4,9.5-9.1,17.6
	S120.7,39.1,128,37.7z M152.3,6.4c-3,0-6.3,1.5-6.3,5.2c0,4.3,3.8,5.8,7.1,7.6c5.2,2.7,11,4.6,11,10.9c0,5.8-5.4,8.5-11.1,8.5
	c-5,0-7.6-1-9.6-1.8l-1.3-4.8h0.4c3.3,4.7,6.3,6.1,11.5,6.1c3.8,0,7.2-2.1,7.2-6.6c0-5.1-4.7-6.5-9.4-8.9c-3.7-1.9-8.7-4.4-8.7-9.3
	c0-5.7,5.9-7.5,9.6-7.5c2.5,0,5.7,0.5,8.6,1l1.4,4.9h-0.4C159.5,7.9,157.3,6.4,152.3,6.4z M210.8,6.9l-3.1,1.8L197.6,35l1.2,3h-3.6
	L183.7,8.4l-2.4-1.5V6.5h7.8v0.4l-2,1.3l10.1,26.1l9.9-25.6l-2.6-1.8V6.5h6.3V6.9z M229.6,36.1l2.3,1.5V38h-7.5v-0.4l1.7-1.3
	l-4.1-10.8h-11.6l-4,10.3l2.3,1.8V38h-6v-0.4l3.2-1.8l9.9-25.9l-1.3-3.3h3.6L229.6,36.1z M210.6,25h11.2l-5.6-14.4L210.6,25z
	 M254.2,33h0.4l-1,5h-19.9v-0.4l1.4-1.2V8.1l-1.4-1.2V6.5h6.2v0.4l-1.4,1.2v29.3H251L254.2,33z M270.4,5.9c8.4,0,15.3,7.5,15.3,16.4
	c0,8.9-7,16.4-15.3,16.4S255,31.1,255,22.2C255,13.3,262,5.9,270.4,5.9z M273,37.7c7.2-1.4,10.4-9.4,9.1-17.6
	c-1.3-8.2-6.9-14.7-14.2-13.3c-7.3,1.3-10.4,9.5-9.1,17.6S265.7,39.1,273,37.7z M310,35.8l2.1,1.8V38h-6.9v-0.4l1.1-1.3l-6.8-10.7
	c-0.5,0-1.1,0.1-1.6,0.1h-4.7v10.7l1.4,1.2V38h-6.2v-0.4l1.4-1.2V8.1l-1.4-1.2V6.5h9.7c6.2,0,12.6,2.6,12.6,9.6
	c0,4.5-3.5,7.5-7.8,8.8L310,35.8z M293.2,25.1h4.7c5.6,0,9.3-3.4,9.3-9s-3.4-9-9-9h-5V25.1z M334.8,33h0.4l-1,5h-19.9v-0.4l1.4-1.2
	V8.1l-1.4-1.2V6.5h19l1,4.9h-0.4L330.7,7h-11.6v11.6h8.5l1.5-2.3h0.4v5.1h-0.4l-1.5-2.3h-8.5v18.3h12.5L334.8,33z M346.7,6.4
	c-3,0-6.3,1.5-6.3,5.2c0,4.3,3.8,5.8,7.1,7.6c5.2,2.7,11,4.6,11,10.9c0,5.8-5.4,8.5-11.1,8.5c-5,0-7.6-1-9.6-1.8l-1.3-4.8h0.4
	c3.3,4.7,6.3,6.1,11.5,6.1c3.8,0,7.2-2.1,7.2-6.6c0-5.1-4.7-6.5-9.4-8.9c-3.7-1.9-8.7-4.4-8.7-9.3c0-5.7,5.9-7.5,9.6-7.5
	c2.5,0,5.7,0.5,8.6,1l1.4,4.9h-0.4C353.9,7.9,351.8,6.4,346.7,6.4z"/>
</svg>
