<svg width="358" height="35" viewBox="0 0 358 35" fill="none" xmlns="http://www.w3.org/2000/svg">
<path d="M20.5518 1.5H26.7618V1.905L23.9268 3.66V33H22.4418L3.40684 3.975V30.84L6.24184 32.595V33H0.031836V32.595L2.86684 30.84V3.66L0.571836 1.905V1.5H5.79184L23.3868 28.365V3.66L20.5518 1.905V1.5ZM43.9079 0.869998C52.2779 0.869998 59.2529 8.34 59.2529 17.25C59.2529 26.115 52.2779 33.63 43.9079 33.63C35.5379 33.63 28.5629 26.115 28.5629 17.25C28.5629 8.34 35.5379 0.869998 43.9079 0.869998ZM46.4729 32.73C53.7179 31.38 56.8679 23.28 55.5629 15.09C54.2129 6.9 48.6329 0.419998 41.3879 1.77C34.0979 3.12 30.9479 11.22 32.2979 19.41C33.6479 27.6 39.1829 34.08 46.4729 32.73ZM70.7469 1.41C67.7769 1.41 64.4019 2.94 64.4469 6.63C64.4469 10.95 68.2719 12.48 71.5569 14.235C76.7769 16.935 82.5819 18.87 82.5819 25.17C82.5819 30.975 77.1819 33.63 71.4669 33.63C66.5169 33.63 63.8619 32.595 61.8819 31.83L60.6219 27.015H60.9819C64.2669 31.695 67.2819 33.09 72.5019 33.09C76.2819 33.09 79.7019 30.975 79.7019 26.52C79.6569 21.39 74.9769 20.04 70.2969 17.655C66.5619 15.765 61.6119 13.29 61.6119 8.34C61.6119 2.625 67.4619 0.869998 71.2419 0.869998C73.7169 0.869998 76.9569 1.365 79.8369 1.86L81.1869 6.72H80.7819C77.9469 2.895 75.8319 1.41 70.7469 1.41ZM94.5213 1.41C91.5513 1.41 88.1763 2.94 88.2213 6.63C88.2213 10.95 92.0463 12.48 95.3313 14.235C100.551 16.935 106.356 18.87 106.356 25.17C106.356 30.975 100.956 33.63 95.2413 33.63C90.2913 33.63 87.6363 32.595 85.6563 31.83L84.3963 27.015H84.7563C88.0413 31.695 91.0563 33.09 96.2763 33.09C100.056 33.09 103.476 30.975 103.476 26.52C103.431 21.39 98.7513 20.04 94.0713 17.655C90.3363 15.765 85.3863 13.29 85.3863 8.34C85.3863 2.625 91.2363 0.869998 95.0163 0.869998C97.4913 0.869998 100.731 1.365 103.611 1.86L104.961 6.72H104.556C101.721 2.895 99.6063 1.41 94.5213 1.41ZM124.416 0.869998C132.786 0.869998 139.761 8.34 139.761 17.25C139.761 26.115 132.786 33.63 124.416 33.63C116.046 33.63 109.071 26.115 109.071 17.25C109.071 8.34 116.046 0.869998 124.416 0.869998ZM126.981 32.73C134.226 31.38 137.376 23.28 136.071 15.09C134.721 6.9 129.141 0.419998 121.896 1.77C114.606 3.12 111.456 11.22 112.806 19.41C114.156 27.6 119.691 34.08 126.981 32.73ZM151.255 1.41C148.285 1.41 144.91 2.94 144.955 6.63C144.955 10.95 148.78 12.48 152.065 14.235C157.285 16.935 163.09 18.87 163.09 25.17C163.09 30.975 157.69 33.63 151.975 33.63C147.025 33.63 144.37 32.595 142.39 31.83L141.13 27.015H141.49C144.775 31.695 147.79 33.09 153.01 33.09C156.79 33.09 160.21 30.975 160.21 26.52C160.165 21.39 155.485 20.04 150.805 17.655C147.07 15.765 142.12 13.29 142.12 8.34C142.12 2.625 147.97 0.869998 151.75 0.869998C154.225 0.869998 157.465 1.365 160.345 1.86L161.695 6.72H161.29C158.455 2.895 156.34 1.41 151.255 1.41ZM209.849 1.905L206.699 3.75L196.574 30.03L197.744 33H194.144L182.714 3.435L180.329 1.905V1.5H188.159V1.905L186.179 3.21L196.304 29.265L206.159 3.66L203.594 1.905V1.5H209.849V1.905ZM228.595 31.065L230.935 32.595V33H223.42V32.595L225.085 31.335L220.945 20.58H209.38L205.42 30.84L207.715 32.595V33H201.73V32.595L204.88 30.75L214.825 4.83L213.52 1.5H217.12L228.595 31.065ZM209.56 20.04H220.72L215.14 5.595L209.56 20.04ZM253.208 28.05H253.613L252.623 33H232.733V32.595L234.173 31.38V3.12L232.733 1.905V1.5H238.943V1.905L237.503 3.12V32.46H249.968L253.208 28.05ZM269.391 0.869998C277.761 0.869998 284.736 8.34 284.736 17.25C284.736 26.115 277.761 33.63 269.391 33.63C261.021 33.63 254.046 26.115 254.046 17.25C254.046 8.34 261.021 0.869998 269.391 0.869998ZM271.956 32.73C279.201 31.38 282.351 23.28 281.046 15.09C279.696 6.9 274.116 0.419998 266.871 1.77C259.581 3.12 256.431 11.22 257.781 19.41C259.131 27.6 264.666 34.08 271.956 32.73ZM308.955 30.84L311.07 32.595V33H304.14V32.595L305.265 31.29L298.47 20.58C297.93 20.625 297.39 20.67 296.895 20.67H292.215V31.38L293.655 32.595V33H287.445V32.595L288.885 31.38V3.12L287.445 1.905V1.5H297.165C303.375 1.5 309.81 4.11 309.81 11.085C309.81 15.54 306.3 18.555 301.98 19.905L308.955 30.84ZM292.215 20.13H296.895C302.52 20.13 306.21 16.71 306.21 11.085C306.21 5.46 302.79 2.04 297.165 2.04H292.215V20.13ZM333.804 28.05H334.209L333.219 33H313.329V32.595L314.769 31.38V3.12L313.329 1.905V1.5H332.319L333.309 6.405H332.904L329.709 2.04H318.099V13.65H326.649L328.134 11.355H328.539V16.485H328.134L326.649 14.19H318.099V32.46H330.609L333.804 28.05ZM345.669 1.41C342.699 1.41 339.324 2.94 339.369 6.63C339.369 10.95 343.194 12.48 346.479 14.235C351.699 16.935 357.504 18.87 357.504 25.17C357.504 30.975 352.104 33.63 346.389 33.63C341.439 33.63 338.784 32.595 336.804 31.83L335.544 27.015H335.904C339.189 31.695 342.204 33.09 347.424 33.09C351.204 33.09 354.624 30.975 354.624 26.52C354.579 21.39 349.899 20.04 345.219 17.655C341.484 15.765 336.534 13.29 336.534 8.34C336.534 2.625 342.384 0.869998 346.164 0.869998C348.639 0.869998 351.879 1.365 354.759 1.86L356.109 6.72H355.704C352.869 2.895 350.754 1.41 345.669 1.41Z" fill="#122561"/>
</svg>
