<svg width="273" height="43" viewBox="0 0 273 43" fill="none" xmlns="http://www.w3.org/2000/svg">
<path d="M20.7008 9.50012H26.9108V9.90512L24.0758 11.6601V41.0001H22.5908L3.55576 11.9751V38.8401L6.39076 40.5951V41.0001H0.180762V40.5951L3.01576 38.8401V11.6601L0.720762 9.90512V9.50012H5.94076L23.5358 36.3651V11.6601L20.7008 9.90512V9.50012ZM44.0568 8.87012C52.4268 8.87012 59.4018 16.3401 59.4018 25.2501C59.4018 34.1151 52.4268 41.6301 44.0568 41.6301C35.6868 41.6301 28.7118 34.1151 28.7118 25.2501C28.7118 16.3401 35.6868 8.87012 44.0568 8.87012ZM46.6218 40.7301C53.8668 39.3801 57.0168 31.2801 55.7118 23.0901C54.3618 14.9001 48.7818 8.42012 41.5368 9.77012C34.2468 11.1201 31.0968 19.2201 32.4468 27.4101C33.7968 35.6001 39.3318 42.0801 46.6218 40.7301ZM70.8958 9.41012C67.9258 9.41012 64.5508 10.9401 64.5958 14.6301C64.5958 18.9501 68.4208 20.4801 71.7058 22.2351C76.9258 24.9351 82.7308 26.8701 82.7308 33.1701C82.7308 38.9751 77.3308 41.6301 71.6158 41.6301C66.6658 41.6301 64.0108 40.5951 62.0308 39.8301L60.7708 35.0151H61.1308C64.4158 39.6951 67.4308 41.0901 72.6508 41.0901C76.4308 41.0901 79.8508 38.9751 79.8508 34.5201C79.8058 29.3901 75.1258 28.0401 70.4458 25.6551C66.7108 23.7651 61.7608 21.2901 61.7608 16.3401C61.7608 10.6251 67.6108 8.87012 71.3908 8.87012C73.8658 8.87012 77.1058 9.36512 79.9858 9.86012L81.3358 14.7201H80.9308C78.0958 10.8951 75.9808 9.41012 70.8958 9.41012ZM94.6702 9.41012C91.7002 9.41012 88.3252 10.9401 88.3702 14.6301C88.3702 18.9501 92.1952 20.4801 95.4802 22.2351C100.7 24.9351 106.505 26.8701 106.505 33.1701C106.505 38.9751 101.105 41.6301 95.3902 41.6301C90.4402 41.6301 87.7852 40.5951 85.8052 39.8301L84.5452 35.0151H84.9052C88.1902 39.6951 91.2052 41.0901 96.4252 41.0901C100.205 41.0901 103.625 38.9751 103.625 34.5201C103.58 29.3901 98.9002 28.0401 94.2202 25.6551C90.4852 23.7651 85.5352 21.2901 85.5352 16.3401C85.5352 10.6251 91.3852 8.87012 95.1652 8.87012C97.6402 8.87012 100.88 9.36512 103.76 9.86012L105.11 14.7201H104.705C101.87 10.8951 99.7552 9.41012 94.6702 9.41012ZM133.383 39.0651L135.723 40.5951V41.0001H128.208V40.5951L129.873 39.3351L125.733 28.5801H114.168L110.208 38.8401L112.503 40.5951V41.0001H106.518V40.5951L109.668 38.7501L119.613 12.8301L118.308 9.50012H121.908L133.383 39.0651ZM114.348 28.0401H125.508L119.928 13.5951L114.348 28.0401ZM181.565 9.90512L178.415 11.7501L168.29 38.0301L169.46 41.0001H165.86L154.43 11.4351L152.045 9.90512V9.50012H159.875V9.90512L157.895 11.2101L168.02 37.2651L177.875 11.6601L175.31 9.90512V9.50012H181.565V9.90512ZM189.565 9.90512L188.125 11.1201V39.3801L189.565 40.5951V41.0001H183.355V40.5951L184.75 39.3801V11.1201L183.355 9.90512V9.50012H189.565V9.90512ZM201.501 9.41012C198.531 9.41012 195.156 10.9401 195.201 14.6301C195.201 18.9501 199.026 20.4801 202.311 22.2351C207.531 24.9351 213.336 26.8701 213.336 33.1701C213.336 38.9751 207.936 41.6301 202.221 41.6301C197.271 41.6301 194.616 40.5951 192.636 39.8301L191.376 35.0151H191.736C195.021 39.6951 198.036 41.0901 203.256 41.0901C207.036 41.0901 210.456 38.9751 210.456 34.5201C210.411 29.3901 205.731 28.0401 201.051 25.6551C197.316 23.7651 192.366 21.2901 192.366 16.3401C192.366 10.6251 198.216 8.87012 201.996 8.87012C204.471 8.87012 207.711 9.36512 210.591 9.86012L211.941 14.7201H211.536C208.701 10.8951 206.586 9.41012 201.501 9.41012ZM240.214 39.0651L242.554 40.5951V41.0001H235.039V40.5951L236.704 39.3351L232.564 28.5801H220.999L217.039 38.8401L219.334 40.5951V41.0001H213.349V40.5951L216.499 38.7501L226.444 12.8301L225.139 9.50012H228.739L240.214 39.0651ZM221.179 28.0401H232.339L226.759 13.5951L221.179 28.0401ZM234.229 0.815119L234.544 0.95012C233.824 3.38012 232.744 5.36012 230.674 5.36012C227.929 5.36012 225.184 3.29012 223.339 3.33512C222.124 3.33512 221.719 3.83012 221.179 5.63012L220.819 5.49512C221.629 2.75012 222.709 1.31012 224.824 1.31012C227.569 1.31012 229.549 3.33512 232.069 3.29012C233.014 3.24512 233.644 2.84012 234.229 0.815119ZM257.016 8.87012C265.386 8.87012 272.361 16.3401 272.361 25.2501C272.361 34.1151 265.386 41.6301 257.016 41.6301C248.646 41.6301 241.671 34.1151 241.671 25.2501C241.671 16.3401 248.646 8.87012 257.016 8.87012ZM259.581 40.7301C266.826 39.3801 269.976 31.2801 268.671 23.0901C267.321 14.9001 261.741 8.42012 254.496 9.77012C247.206 11.1201 244.056 19.2201 245.406 27.4101C246.756 35.6001 252.291 42.0801 259.581 40.7301Z" fill="#122561"/>
</svg>
