<?xml version="1.0" encoding="utf-8"?>
<!-- Generator: Adobe Illustrator 28.0.0, SVG Export Plug-In . SVG Version: 6.00 Build 0)  -->
<svg version="1.1" id="Layer_1" xmlns="http://www.w3.org/2000/svg" xmlns:xlink="http://www.w3.org/1999/xlink" x="0px" y="0px"
	 viewBox="0 0 360 45" style="enable-background:new 0 0 360 45;" xml:space="preserve">
<style type="text/css">
	.st0{fill:#122561;}
</style>
<path class="st0" d="M64.2,10.5h6.2v0.4l-2.8,1.8V42h-1.5l-19-29v26.9l2.8,1.8V42h-6.2v-0.4l2.8-1.8V12.7l-2.3-1.8v-0.4h5.2L67,37.4
	V12.7l-2.8-1.8V10.5z M87.6,9.9c8.4,0,15.3,7.5,15.3,16.4c0,8.9-7,16.4-15.3,16.4s-15.3-7.5-15.3-16.4C72.2,17.3,79.2,9.9,87.6,9.9z
	 M90.1,41.7c7.2-1.3,10.4-9.5,9.1-17.6C97.9,15.9,92.3,9.4,85,10.8c-7.3,1.3-10.4,9.4-9.1,17.6S82.8,43.1,90.1,41.7z M114.4,10.4
	c-3,0-6.3,1.5-6.3,5.2c0,4.3,3.8,5.9,7.1,7.6c5.2,2.7,11,4.6,11,10.9c0,5.8-5.4,8.5-11.1,8.5c-4.9,0-7.6-1-9.6-1.8l-1.3-4.8h0.4
	c3.3,4.7,6.3,6.1,11.5,6.1c3.8,0,7.2-2.1,7.2-6.6c0-5.1-4.7-6.5-9.4-8.9c-3.7-1.9-8.7-4.4-8.7-9.3c0-5.7,5.8-7.5,9.6-7.5
	c2.5,0,5.7,0.5,8.6,1l1.3,4.9h-0.4C121.6,11.9,119.5,10.4,114.4,10.4z M138.2,10.4c-3,0-6.3,1.5-6.3,5.2c0,4.3,3.8,5.9,7.1,7.6
	c5.2,2.7,11,4.6,11,10.9c0,5.8-5.4,8.5-11.1,8.5c-4.9,0-7.6-1-9.6-1.8L128,36h0.4c3.3,4.7,6.3,6.1,11.5,6.1c3.8,0,7.2-2.1,7.2-6.6
	c0-5.1-4.7-6.5-9.4-8.9c-3.7-1.9-8.7-4.4-8.7-9.3c0-5.7,5.8-7.5,9.6-7.5c2.5,0,5.7,0.5,8.6,1l1.3,4.9h-0.4
	C145.4,11.9,143.3,10.4,138.2,10.4z M176.9,40.1l2.3,1.5V42h-7.5v-0.4l1.7-1.3l-4.1-10.8h-11.6l-4,10.3l2.3,1.8V42h-6v-0.4l3.1-1.8
	l9.9-25.9l-1.3-3.3h3.6L176.9,40.1z M157.8,29H169l-5.6-14.4L157.8,29z M225.1,10.9l-3.2,1.8L211.8,39l1.2,3h-3.6l-11.4-29.6
	l-2.4-1.5v-0.4h7.8v0.4l-2,1.3l10.1,26.1l9.9-25.6l-2.6-1.8v-0.4h6.3V10.9z M233.1,10.9l-1.4,1.2v28.3l1.4,1.2V42h-6.2v-0.4l1.4-1.2
	V12.1l-1.4-1.2v-0.4h6.2V10.9z M245,10.4c-3,0-6.3,1.5-6.3,5.2c0,4.3,3.8,5.9,7.1,7.6c5.2,2.7,11,4.6,11,10.9
	c0,5.8-5.4,8.5-11.1,8.5c-4.9,0-7.6-1-9.6-1.8l-1.3-4.8h0.4c3.3,4.7,6.3,6.1,11.5,6.1c3.8,0,7.2-2.1,7.2-6.6c0-5.1-4.7-6.5-9.4-8.9
	c-3.7-1.9-8.7-4.4-8.7-9.3c0-5.7,5.9-7.5,9.6-7.5c2.5,0,5.7,0.5,8.6,1l1.3,4.9H255C252.2,11.9,250.1,10.4,245,10.4z M283.7,40.1
	l2.3,1.5V42h-7.5v-0.4l1.7-1.3l-4.1-10.8h-11.6l-4,10.3l2.3,1.8V42h-6v-0.4l3.1-1.8l9.9-25.9l-1.3-3.3h3.6L283.7,40.1z M264.7,29
	h11.2l-5.6-14.4L264.7,29z M277.7,1.8L278,2c-0.7,2.4-1.8,4.4-3.9,4.4c-2.7,0-5.5-2.1-7.3-2c-1.2,0-1.6,0.5-2.2,2.3l-0.4-0.1
	c0.8-2.7,1.9-4.2,4-4.2c2.7,0,4.7,2,7.2,2C276.5,4.2,277.1,3.8,277.7,1.8z M300.5,9.9c8.4,0,15.3,7.5,15.3,16.4
	c0,8.9-7,16.4-15.3,16.4s-15.3-7.5-15.3-16.4C285.2,17.3,292.1,9.9,300.5,9.9z M303.1,41.7c7.2-1.3,10.4-9.5,9.1-17.6
	c-1.3-8.2-6.9-14.7-14.2-13.3c-7.3,1.3-10.4,9.4-9.1,17.6C290.3,36.6,295.8,43.1,303.1,41.7z"/>
</svg>
