<?xml version="1.0" encoding="UTF-8"?><svg id="Layer_1" xmlns="http://www.w3.org/2000/svg" viewBox="0 0 50 50"><defs><style>.cls-1{stroke-width:0px;}</style></defs><path class="cls-1" d="m36.32,33.94c1.33-5.19,8.3-7.76,6.08-18.33-2.22-10.57-14.7-11.65-21.14-9.98-6.68,1.73-11.98,8.83-10.22,14.76.14.46.06.95-.2,1.35-.81,1.26-3,4.01-3.59,5.62-.21.58.12,1.22.72,1.38.19.05,1.34.5,1.49.55,1.54.49,1.24,3.89,1.24,7.01s3.46,2.82,4.59,2.57c1.14-.25,3.7-.48,3.7,2.62,0,.41.01.75.03,1.01.04.62.44,1.15,1.02,1.38,2.28.88,8.9,2.25,16.89-.61.47-.17.68-.71.46-1.16-.75-1.5-2.06-4.33-1.07-8.19Zm-2.56-4.87c-1.79.93-3.17-.15-3.87-.92-.39.17-.83.27-1.29.27-.75,0-1.43-.26-1.98-.69-.02.07-2.43.62-2.85-1.06.04,0,.08,0,.11,0s.08,0,.12,0c1.49-.04,2.93-.85,4.27-2.4.22-.26.2-.65-.06-.88-.26-.22-.65-.2-.88.06-1.1,1.27-2.22,1.93-3.35,1.97-.33.01-.64-.04-.92-.11-.08-.02-.15-.05-.23-.07-.08-.03-.16-.06-.23-.09-.62-.27-.99-.64-1-.65-.02-.02-.03-.03-.05-.04-.83-.87-.81-2.05-.67-2.84-2.98.33-4.39-.77-5.05-1.84.27-.03.53-.09.8-.2.81-.31,1.41-.93,1.8-1.82.14-.32,0-.68-.32-.82-.32-.14-.68,0-.82.32-.25.58-.61.96-1.1,1.15-.44.17-.92.17-1.33.11-.96-.47-1.62-1.46-1.62-2.6,0-1.52,1.16-2.76,2.65-2.89-.16-.28-.23-.62-.17-.98.1-.62.61-1.12,1.24-1.2.05,0,.1,0,.15,0,.19.59.59,1.4,1.36,1.72.22.09.44.14.67.14.49,0,1-.2,1.55-.59.28-.2.34-.59.14-.87-.2-.28-.59-.34-.87-.14-.3.21-.71.44-1.02.32-.34-.14-.58-.68-.7-1.1.43-.77,1.25-1.29,2.2-1.29.51,0,.99.15,1.39.42.35-.97,1.28-1.65,2.37-1.65.6,0,1.14.21,1.58.55.46-.66,1.22-1.09,2.08-1.09s1.59.42,2.05,1.06c.32-.19.7-.31,1.1-.31.92,0,1.71.58,2.01,1.4.29-.18.63-.29,1-.29,1.03,0,1.86.83,1.86,1.86,0,.04,0,.08,0,.12.25-.11.54-.15.84-.08.49.11.88.5.99.99.07.3.03.59-.08.84.03,0,.05,0,.08,0,.91,0,1.65.74,1.65,1.65,0,.31-.09.59-.24.84-1.04-.16-2.33.11-3.34,1.55-.2.28-.13.67.15.87.11.08.23.11.36.11.2,0,.39-.09.51-.26,1.24-1.76,2.88-.82,3.06-.7.01,0,.03.01.04.02.45.77.72,1.67.72,2.63,0,1.58-.71,2.99-1.82,3.94.12.4.14.84.01,1.31-.23.83-.9,1.49-1.74,1.7-.49.12-.95.08-1.37-.07-.14.97-.65,1.99-1.92,2.65Z"/><path class="cls-1" d="m24.14,15.33c-1.01,1.09-1.34,2.77-.83,4.16.09.25.33.41.58.41.07,0,.14-.01.21-.04.32-.12.49-.48.37-.8-.36-.97-.13-2.13.57-2.89.23-.25.22-.65-.04-.88-.25-.23-.65-.22-.88.04Z"/><path class="cls-1" d="m35.88,13.21c-.8-1.45-2.09-1.86-3.27-1.83-.09-.43-.27-1.06-.62-1.61-.18-.29-.57-.38-.86-.2-.29.18-.38.57-.2.86.23.37.36.81.44,1.13-.34.09-.65.21-.9.33-.31.15-.44.52-.29.83.15.31.52.44.83.29.11-.05,2.64-1.26,3.77.79.11.21.33.32.55.32.1,0,.2-.02.3-.08.3-.17.41-.55.24-.85Z"/><path class="cls-1" d="m30.22,19.9c.31,1.19,1.15,1.92,2.3,2.01.02,0,.03,0,.05,0,.32,0,.59-.25.62-.57.03-.34-.23-.64-.57-.67-.37-.03-.65-.16-.86-.41-.36-.43-.41-1.11-.41-1.28.02-.1.02-.21-.01-.32-.08-.26-.32-.44-.59-.45-2.15-.03-2.54-2.06-2.56-2.15-.06-.34-.38-.56-.72-.51s-.57.38-.51.72c.17,1,1.04,2.82,3.16,3.14.02.15.05.31.1.48Z"/><path class="cls-1" d="m25.9,9.24c-.33.11-.5.46-.39.79.24.73.22,1.31-.07,1.76-.58.91-2.05,1.09-2.08,1.1-.34.04-.59.35-.55.69.04.32.3.56.62.56.02,0,.05,0,.07,0,.08,0,2.08-.24,2.99-1.66.5-.78.57-1.73.2-2.83-.11-.33-.46-.5-.79-.39Z"/><path class="cls-1" d="m33.8,26.45c-.87.37-1.59.43-2.14.17-.73-.35-.98-1.17-.99-1.2-.09-.33-.43-.52-.76-.43-.33.09-.53.43-.44.76.02.06.39,1.38,1.64,1.99.4.19.84.29,1.31.29.58,0,1.2-.15,1.88-.43.32-.14.46-.5.33-.82-.14-.32-.5-.46-.82-.33Z"/></svg>