<?xml version="1.0" encoding="UTF-8"?><svg id="Layer_1" xmlns="http://www.w3.org/2000/svg" viewBox="0 0 50 50"><defs><style>.cls-1{stroke-width:0px;}</style></defs><path class="cls-1" d="m25,40.56l-3.95-22.84h7.9l-3.95,22.84Zm4.43-25.28l-4.4-7.09h-.07l-4.4,7.09c.05.08.09.17.1.26l.11.68h8.42l.11-.68c.02-.09.05-.18.11-.26Zm-10.16.94l-.03-.2-7.24-7.83h-.69l-6.31,8.03h14.27Zm-5.22-8l5.47,5.9,3.68-5.92-9.15.03Zm5.5,9.5H5.34l9.32,11.82,9.03,12.26-4.14-24.08Zm10.94,0l-4.19,24.08,9-12.24,9.35-11.84h-14.17Zm-3.67-9.5l3.68,5.9,5.44-5.92-9.12.03Zm11.89,0h-.72l-7.24,7.78-.03.2h14.27l-6.28-7.98Z"/></svg>