<?xml version="1.0" encoding="UTF-8"?><svg id="Layer_1" xmlns="http://www.w3.org/2000/svg" viewBox="0 0 50 50"><defs><style>.cls-1{stroke-width:0px;}</style></defs><path class="cls-1" d="m24.74,13.67s-.03.01-.04.02c-.14.08-.27.15-.4.23-.04.02-.08.05-.11.07-.03.02-.06.04-.09.06-.07.05-.14.09-.22.14-1.69,1.15-3.08,2.79-3.92,4.65-.36.8-.61,1.6-.83,2.39-.16-.27-.31-.56-.47-.85h0c-.68-1.26-1.45-2.68-2.69-3.68-.17-.14-.34-.26-.52-.38-.01,0-.02-.02-.04-.02-.11-.07-.22-.13-.33-.19-.04-.02-.09-.05-.14-.07-.15-.08-.31-.15-.47-.21.39-2.31.29-4.84-2.1-9.56l-.47-.93,1.02.21c3.18.66,5,1.23,7.38,2.86,1.69,1.16,3.12,2.86,4.43,5.26Z"/><path class="cls-1" d="m43.91,17.09c.24-.25.47-.52.69-.8-.04.2-.08.4-.12.59-.45,1.99-1.1,3.85-1.93,5.53-.23.46-.47.9-.72,1.33-.35.38-.76.71-1.23,1-.31.19-.65.37-1.01.52-.83.35-1.78.6-2.84.73-1.97.24-4.25.06-6.41-.5l-.25.97c1.47.38,3.17.63,4.88.63,1.12,0,2.25-.11,3.31-.36.32-.08.64-.16.95-.26.34-.11.67-.24.99-.39-.22.27-.44.53-.68.79-2.16,2.37-4.99,3.82-6.98,4.63-1.96.79-4,1.15-5.97,1.37,0,0,0,0,0,0-.2.02-.39.04-.59.05-.2.02-.41.03-.61.05-.27.02-.53.04-.79.06l.08,1c.46-.04.93-.08,1.41-.12.18-.02.37-.03.56-.05.18-.02.36-.03.54-.05h0c.26.46.48.95.64,1.44,1.98.44,4.17.4,6.49-.12l.66-.15-.06.68c-.1,1.25-.47,2.49-1.07,3.63-.18-.01-.35-.04-.53-.07-.17-.03-.34-.07-.51-.12-.66-.18-1.31-.45-1.95-.72-.2-.09-.42-.17-.62-.26l-.37.93c.2.08.41.17.61.25.57.24,1.16.48,1.76.67.17.05.34.1.51.14.18.04.35.08.53.11-.32.48-.68.93-1.08,1.36-.44.47-.93.9-1.45,1.29-.12-.12-.24-.24-.36-.36-.12-.12-.23-.24-.34-.37-.56-.61-1.09-1.26-1.57-1.93l-.81.58c.48.66.99,1.3,1.54,1.91.11.13.23.25.34.37.12.13.24.25.36.37-1,.62-2.12,1.1-3.31,1.43l-.33.09-.2-.27c-1.2-1.6-1.96-3.38-2.21-5.18-.33.04-.66.03-.99-.02.04-.1.1-.2.16-.29l-.39-.26-.02-.02h0s-.41-.28-.41-.28c-.05.07-.1.15-.14.23-.09.16-.16.32-.21.5-.12.36-.16.74-.14,1.12-.35-.25-.63-.61-.75-1.02-.01-.04-.02-.08-.03-.13-.04-.16-.05-.33-.04-.5,0-.17.03-.34.08-.5.09-.32.26-.61.49-.84,0,0,.02-.02.03-.03l-.35-.36-.35-.36c-.44.42-.73.98-.85,1.57-.01.07-.03.14-.03.21-.01.1-.02.2-.02.29,0,.17,0,.33.03.5,0,.01,0,.02,0,.04-.38.51-.66,1.14-.69,1.76-.34-.29-.58-.72-.64-1.19-.03-.22-.01-.45.03-.68.04-.16.09-.33.16-.48.07-.16.17-.32.28-.47.12-.16.26-.31.41-.44.01-.01.03-.03.04-.04l-.32-.39-.32-.39c-.37.3-.67.67-.89,1.07-.08.15-.15.3-.21.46-.06.16-.11.32-.14.48-1.11-.3-2.19-.83-3.14-1.55-1.39-1.06-2.44-2.49-2.95-4.03-.51-1.54-.57-3.16-.63-4.73-.01-.33-.02-.68-.04-1.02-.08-1.71-.32-3.65-1.39-5.11-.18-.24-.41-.48-.65-.63.05.36.02.71-.08,1.03,1.14.91,1.57,2.52.94,3.77-.37.73-.91,1.25-1.48,1.76-.49.44-.88.88-1.19,1.6l-.41.94-.49-.9c-1.02-1.86-1.31-3.44-.88-4.81.37-1.19,1.35-2.18,2.53-2.58.11-.28.1-.61.02-.89l-.28.06.04-.63c-.23-.41-.57-.78-.9-1.14l.74-.67c.13.14.26.29.39.44.36-1.23,1.11-2.27,2.13-2.89,1.4-.85,3.23-.89,4.67-.1.1.06.2.12.3.18.15.1.3.2.44.32,1.09.88,1.78,2.15,2.44,3.38.32.59.63,1.17.98,1.7-.06.21-.12.42-.18.62-.06.2-.13.38-.2.56-.35.88-.78,1.57-1.32,2.08l.69.72c.55-.53,1-1.19,1.37-1.99.07-.16.14-.32.21-.49.07-.17.13-.34.19-.52,0,0,0,.01.01.02.12-.41.24-.84.35-1.25.27-1.01.55-2.06.99-3.04.79-1.76,2.13-3.31,3.76-4.36.03-.02.05-.03.08-.05.15-.1.31-.19.47-.28,1.75-.98,3.72-1.39,5.62-1.8.98-.21,2-.42,2.96-.71,3.67-1.1,6.97-3.46,8.83-6.29l.5-.76.38.83c.94,2.07,1.43,4.37,1.46,6.73,0,.85-.25,1.63-.62,2.33-.19.35-.41.67-.65.98-.63.78-1.42,1.42-2.18,1.87-2,1.17-4.38,1.66-7.27,1.5l-.06,1c.38.02.74.03,1.1.03,2.61,0,4.82-.55,6.73-1.67.42-.24.84-.54,1.25-.88.23-.2.46-.41.68-.63,0,0,0,0,0,0Z"/></svg>