<?xml version="1.0" encoding="UTF-8"?><svg id="Layer_1" xmlns="http://www.w3.org/2000/svg" viewBox="0 0 50 50"><defs><style>.cls-1{stroke-width:0px;}</style></defs><path class="cls-1" d="m44.92,36.27v1.76c0,3.84-3.13,6.97-6.97,6.97h-14.19l.99-1.68c1.07-1.8,1.68-3.87,1.76-5.99l.04-1.07h18.37Z"/><path class="cls-1" d="m9.26,9.36v4.37h-4.18v-4.37c0-2.41.94-4.36,2.09-4.36s2.09,1.95,2.09,4.36Z"/><path class="cls-1" d="m30.95,5H9.9l.55,1.5c.34.92.51,1.88.49,2.84v28.69c0,3.84,3.13,6.97,6.98,6.97,6.97,0,6.97-7.2,6.97-9.58,0-.47.38-.84.84-.84h12.19V11.97c0-3.84-3.13-6.97-6.97-6.97Zm2.42,26.74H14.57v-.75h18.81v.75Zm0-3.61H14.57v-.75h18.81v.75Zm0-3.61H14.57v-.75h18.81v.75Zm0-3.61H14.57v-.75h18.81v.75Zm0-3.61H14.57v-.75h18.81v.75Zm0-3.61H14.57v-.75h18.81v.75Z"/></svg>