<?xml version="1.0" encoding="UTF-8"?><svg id="Layer_1" xmlns="http://www.w3.org/2000/svg" viewBox="0 0 50 50"><defs><style>.cls-1{stroke-width:0px;}</style></defs><path class="cls-1" d="m17.69,37.19c-.49.49-1.27.68-2.22.84-2.12.36-4-1.47-3.62-3.62.15-.81.58-1.95.84-2.22.15-.15.16-.4,0-.55-.09-.09-.21-.13-.33-.11-1.19.15-2.29.68-3.14,1.53-2.1,2.1-2.3,9.9-2.3,9.9,0,0,7.8-.2,9.9-2.3.85-.84,1.39-1.95,1.53-3.14.03-.37-.42-.6-.68-.33Z"/><path class="cls-1" d="m44.83,5.69c-.04-.26-.25-.48-.51-.51-8.39-1.16-18.6,3.54-26.33,12.9-.11.13-.26.2-.43.19-2.86-.18-9.43.3-12.51,7.92-.14.35.08.73.45.8l9.04,1.7c.18.04.31.2.29.39l-.19,1.84c-.02.18.05.35.17.48l3.8,3.8c.13.13.3.19.48.17l1.84-.19c.19-.02.35.1.39.29l1.7,9.04c.07.36.46.59.8.45,7.63-3.07,8.11-9.65,7.92-12.51,0-.17.06-.32.19-.43,9.36-7.73,14.06-17.95,12.9-26.33h0Zm-7.57,12c-1.36,1.36-3.57,1.36-4.94,0s-1.36-3.57,0-4.94,3.57-1.36,4.94,0,1.36,3.57,0,4.94Z"/></svg>