<?xml version="1.0" encoding="UTF-8"?><svg id="Layer_1" xmlns="http://www.w3.org/2000/svg" viewBox="0 0 50 50"><defs><style>.cls-1{fill-rule:evenodd;stroke-width:0px;}</style></defs><path class="cls-1" d="m33.32,30.55l6.66,1.79-6.66,1.79c-2.05.55-3.66,2.16-4.21,4.21l-1.79,6.66-1.79-6.66c-.55-2.05-2.16-3.66-4.21-4.21l-6.66-1.79,6.66-1.79c2.05-.55,3.66-2.16,4.21-4.21l1.79-6.66,1.79,6.66c.55,2.05,2.16,3.66,4.21,4.21Z"/><path class="cls-1" d="m21.12,13.77l3.57.96-3.57.96c-1.37.37-2.44,1.44-2.81,2.81l-.96,3.57-.96-3.57c-.37-1.37-1.44-2.44-2.81-2.81l-3.57-.96,3.57-.96c1.37-.37,2.44-1.44,2.81-2.81l.96-3.57.96,3.57c.37,1.37,1.44,2.44,2.81,2.81Z"/><path class="cls-1" d="m36.89,9.16l2.75.74-2.75.74c-.68.18-1.22.72-1.4,1.4l-.74,2.75-.74-2.75c-.18-.68-.72-1.22-1.4-1.4l-2.75-.74,2.75-.74c.68-.18,1.22-.72,1.4-1.4l.74-2.75.74,2.75c.18.68.72,1.22,1.4,1.4Z"/></svg>