<?xml version="1.0" encoding="utf-8"?>
<!-- Generator: Adobe Illustrator 27.7.0, SVG Export Plug-In . SVG Version: 6.00 Build 0)  -->
<svg version="1.1" id="Layer_1" xmlns="http://www.w3.org/2000/svg" xmlns:xlink="http://www.w3.org/1999/xlink" x="0px" y="0px"
	 viewBox="0 0 46 45" style="enable-background:new 0 0 46 45;" xml:space="preserve">
<style type="text/css">
	.st0{display:none;}
	.st1{display:inline;fill-rule:evenodd;clip-rule:evenodd;}
	.st2{display:none;fill-rule:evenodd;clip-rule:evenodd;fill:#FFFFFF;}
	.st3{fill:#FFFFFF;}
</style>
<g id="Group" class="st0">
	<path id="Rectangle-5" class="st1" d="M0,0h46v18.9V45H0V0z"/>
</g>
<path id="_x38_" class="st2" d="M29.7,24.3c0.6,0.9,1,2,1,3.2c0,1.4-0.3,2.5-1,3.5c-0.6,1-1.5,1.7-2.6,2.2S24.8,34,23.4,34
	s-2.7-0.2-3.8-0.7c-1.1-0.5-2-1.2-2.6-2.2s-1-2.1-1-3.5c0-1.2,0.3-2.3,1-3.3c0.6-0.9,1.5-1.7,2.6-2.2c-1-0.5-1.7-1.2-2.3-2
	s-0.8-1.8-0.8-2.9c0-1.3,0.3-2.4,0.9-3.3c0.6-0.9,1.4-1.6,2.4-2.1c1-0.5,2.2-0.7,3.6-0.7c1.3,0,2.5,0.2,3.6,0.7
	c1,0.5,1.8,1.2,2.4,2.1c0.6,0.9,0.9,2,0.9,3.3c0,1.1-0.3,2-0.8,2.9s-1.3,1.5-2.3,2C28.2,22.6,29.1,23.4,29.7,24.3L29.7,24.3z
	 M21.1,15c-0.5,0.6-0.8,1.4-0.8,2.4s0.3,1.8,0.8,2.4s1.3,0.9,2.2,0.9c0.9,0,1.7-0.3,2.2-0.9s0.8-1.4,0.8-2.4S26,15.6,25.5,15
	c-0.5-0.6-1.3-0.9-2.2-0.9S21.7,14.4,21.1,15L21.1,15z M25.9,30c0.6-0.6,0.9-1.5,0.9-2.6c0-0.7-0.1-1.4-0.4-1.9s-0.7-1-1.2-1.3
	s-1.2-0.5-1.9-0.5c-0.7,0-1.3,0.2-1.9,0.5c-0.5,0.3-0.9,0.7-1.2,1.3c-0.3,0.5-0.4,1.2-0.4,1.9c0,1.1,0.3,2,0.9,2.6s1.5,0.9,2.6,0.9
	C24.5,30.9,25.3,30.6,25.9,30L25.9,30z"/>
<g id="Camada_1">
	<path class="st3" d="M45.7,22.5C45.7,34.9,35.5,45,23,45S0.3,34.9,0.3,22.5S10.5,0,23,0S45.7,10.1,45.7,22.5"/>
	<g>
		<path d="M19.2,20.3l-2.7,12.2c-0.2,1.1,0.6,2.2,1.7,2.2h9.6c1.1,0,2-1.1,1.7-2.2l-2.7-12.2H19.2L19.2,20.3z"/>
		<path d="M27.8,10.3v1.5c0,0.4-0.3,0.7-0.7,0.7h-1.7c-0.4,0-0.7-0.3-0.7-0.7v-1.5h-3.6v1.5c0,0.4-0.3,0.7-0.7,0.7h-1.7
			c-0.4,0-0.7-0.3-0.7-0.7v-1.5h-2.7V17c0,0.3,0.2,0.7,0.4,0.9l2.3,1.7h9.6l2.3-1.7c0.3-0.2,0.4-0.5,0.4-0.9v-6.7H27.8L27.8,10.3z"
			/>
	</g>
</g>
</svg>
