<svg width="41" height="41" viewBox="0 0 41 41" fill="none" xmlns="http://www.w3.org/2000/svg">
<path d="M14.1121 28.5927C14.2146 28.4584 14.3079 28.3439 14.3934 28.2233C17.0956 24.39 19.7961 20.5567 22.4975 16.7234C25.7479 12.1103 28.9984 7.49627 32.2514 2.88399C32.4157 2.65055 32.5835 2.41541 32.7784 2.20762C33.63 1.29611 34.6765 0.842924 35.9238 0.818127C37.8134 0.781359 39.6089 2.111 40.0978 4.02552C40.3868 5.15849 40.269 6.24871 39.7038 7.27822C39.5987 7.4689 39.4767 7.65104 39.3513 7.82889C33.7469 15.7871 28.1417 23.7444 22.5365 31.7017C21.0214 33.8531 19.5089 36.0053 17.9879 38.1524C17.7837 38.4406 17.5634 38.7236 17.3117 38.9682C15.6509 40.5826 13.0275 40.5894 11.3557 38.975C11.1998 38.8245 11.0549 38.6595 10.9176 38.491C7.7053 34.5526 4.49638 30.6115 1.28238 26.6739C0.714656 25.9787 0.352838 25.1912 0.271492 24.2985C0.152863 22.9945 0.524002 21.8342 1.41796 20.8714C2.12804 20.1069 3.00335 19.6512 4.04474 19.5332C5.55811 19.3622 6.81897 19.8649 7.82562 21.003C8.29421 21.5332 8.7272 22.0958 9.17461 22.6448C10.6981 24.514 12.2208 26.3849 13.7452 28.2532C13.8376 28.367 13.9164 28.4995 14.113 28.5901L14.1121 28.5927Z" fill="#384580"/>
</svg>
