<?xml version="1.0" encoding="utf-8"?>
<!-- Generator: Adobe Illustrator 28.0.0, SVG Export Plug-In . SVG Version: 6.00 Build 0)  -->
<svg version="1.1" id="Layer_1" xmlns="http://www.w3.org/2000/svg" xmlns:xlink="http://www.w3.org/1999/xlink" x="0px" y="0px"
	 viewBox="0 0 403 45" style="enable-background:new 0 0 403 45;" xml:space="preserve">
<style type="text/css">
	.st0{fill:#384580;}
</style>
<path class="st0" d="M20.8,33h0.4l-1,5H0.3v-0.4l1.4-1.2V8.1L0.3,6.9V6.5h19l1,4.9h-0.4L16.7,7H5.1v11.6h8.6l1.5-2.3h0.4v5.1h-0.4
	l-1.5-2.3H5.1v18.3h12.5L20.8,33z M43.5,6.5h6.2v0.4l-2.8,1.8V38h-1.5l-19-29v26.9l2.8,1.8V38H23v-0.4l2.8-1.8V8.7l-2.3-1.8V6.5h5.2
	l17.6,26.9V8.7l-2.8-1.8V6.5z M74.1,6.5l1,4.9h-0.4L71.5,7h-6.7v29.3l1.4,1.2V38H60v-0.4l1.4-1.2V7h-6.7l-3.2,4.4h-0.4l1-4.9H74.1z
	 M98.9,35.8l2.1,1.8V38H94v-0.4l1.1-1.3l-6.8-10.7c-0.5,0-1.1,0.1-1.6,0.1h-4.7v10.7l1.4,1.2V38h-6.2v-0.4l1.4-1.2V8.1l-1.4-1.2V6.5
	h9.7c6.2,0,12.6,2.6,12.6,9.6c0,4.5-3.5,7.5-7.8,8.8L98.9,35.8z M82.1,25.1h4.7c5.6,0,9.3-3.4,9.3-9s-3.4-9-9-9h-5V25.1z M123.7,33
	h0.4l-1,5h-19.9v-0.4l1.4-1.2V8.1l-1.4-1.2V6.5h19l1,4.9h-0.4L119.6,7H108v11.6h8.5l1.5-2.3h0.4v5.1H118l-1.5-2.3H108v18.3h12.5
	L123.7,33z M162.2,33h0.4l-1,5h-19.9v-0.4l1.4-1.2V8.1l-1.4-1.2V6.5h19l1,4.9h-0.4L158.1,7h-11.6v11.6h8.6l1.5-2.3h0.4v5.1h-0.4
	l-1.5-2.3h-8.6v18.3H159L162.2,33z M197,6.9l-1.4,1.2v28.3l1.4,1.2V38h-6.2v-0.4l1.4-1.2V8l-11.4,30h-1.2L167.8,9.6v26.2l2.8,1.8V38
	h-6.2v-0.4l2.8-1.8V8.7L165,6.9V6.5h5.1l11.6,27.7l10.5-27.7h4.8V6.9z M242.1,32.7l0.5,0.4c-2.7,3.1-6.4,5.5-11.9,5.5
	c-9,0-15.6-7.5-15.6-16.4c0-8.9,7.2-16.4,15.6-16.4c2.7,0,5.5,0.5,8.1,1l1.3,4.8h-0.4c-2.8-4-7.3-5.7-11.6-4.9
	c-7.2,1.4-10.7,9.5-9.3,17.6c1.2,7.2,6.2,14.3,14.7,13C236.9,37,239.8,35.3,242.1,32.7z M258.8,5.9c8.4,0,15.3,7.5,15.3,16.4
	c0,8.9-7,16.4-15.3,16.4s-15.3-7.5-15.3-16.4C243.5,13.3,250.5,5.9,258.8,5.9z M261.4,37.7c7.2-1.4,10.4-9.4,9.1-17.6
	c-1.4-8.2-6.9-14.7-14.2-13.3c-7.3,1.3-10.4,9.5-9.1,17.6C248.6,32.6,254.1,39.1,261.4,37.7z M296.5,6.5h6.2v0.4l-2.8,1.8V38h-1.5
	l-19-29v26.9l2.8,1.8V38H276v-0.4l2.8-1.8V8.7l-2.3-1.8V6.5h5.2l17.6,26.9V8.7l-2.8-1.8V6.5z M327.1,6.5l1,4.9h-0.4L324.5,7h-6.7
	v29.3l1.4,1.2V38H313v-0.4l1.4-1.2V7h-6.7l-3.2,4.4h-0.4l1-4.9H327.1z M349.5,36.1l2.3,1.5V38h-7.5v-0.4l1.7-1.3l-4.1-10.8h-11.6
	l-4,10.3l2.3,1.8V38h-6v-0.4l3.1-1.8l9.9-25.9l-1.3-3.3h3.6L349.5,36.1z M330.5,25h11.2l-5.6-14.4L330.5,25z M370.8,6.5l1,4.9h-0.4
	L368.2,7h-6.7v29.3l1.4,1.2V38h-6.3v-0.4l1.4-1.2V7h-6.7l-3.2,4.4h-0.4l1-4.9H370.8z M387.2,5.9c8.4,0,15.3,7.5,15.3,16.4
	c0,8.9-7,16.4-15.3,16.4s-15.3-7.5-15.3-16.4C371.8,13.3,378.8,5.9,387.2,5.9z M389.7,37.7c7.2-1.4,10.4-9.4,9.1-17.6
	c-1.4-8.2-6.9-14.7-14.2-13.3c-7.3,1.3-10.4,9.5-9.1,17.6S382.4,39.1,389.7,37.7z"/>
</svg>
