<?xml version="1.0" encoding="utf-8"?>
<!-- Generator: Adobe Illustrator 28.0.0, SVG Export Plug-In . SVG Version: 6.00 Build 0)  -->
<svg version="1.1" id="Layer_1" xmlns="http://www.w3.org/2000/svg" xmlns:xlink="http://www.w3.org/1999/xlink" x="0px" y="0px"
	 viewBox="0 0 275 35" style="enable-background:new 0 0 275 35;" xml:space="preserve">
<style type="text/css">
	.st0{fill:#B29220;}
</style>
<path class="st0" d="M17.3,30.8h0.3L16.8,35H0v-0.3l1.2-1V9.8L0,8.7V8.4h16l0.8,4.1h-0.3l-2.7-3.7H4v9.8h7.2l1.3-1.9h0.3v4.3h-0.3
	l-1.3-1.9H4v15.4h10.6L17.3,30.8z M40.4,33.4l2,1.3V35h-7.1v-0.3l1.9-1.1l-7.5-11l-7.9,10.6l2.2,1.5V35h-5.4v-0.3l2.7-1.6l8.2-10.9
	L21.1,10l-2-1.3V8.4h7.2v0.3l-1.9,1.1L31.3,20l7.3-9.7l-2.2-1.5V8.4h5.3v0.3l-2.7,1.6l-7.5,10.1L40.4,33.4z M52.6,8.4
	c5.2,0,10.7,2.2,10.7,8.1s-5.4,8.1-10.7,8.1h-4.2v9l1.2,1V35h-5.2v-0.3l1.2-1V9.8l-1.2-1V8.4H52.6z M52.6,24.1
	c4.8,0,7.6-2.9,7.6-7.6s-2.9-7.6-7.6-7.6h-4.2v15.3H52.6z M82.8,30.8h0.3L82.3,35H65.5v-0.3l1.2-1V9.8l-1.2-1V8.4h16l0.8,4.1H82
	l-2.7-3.7h-9.8v9.8h7.2l1.3-1.9h0.3v4.3H78l-1.3-1.9h-7.2v15.4h10.6L82.8,30.8z M103.2,33.2l1.8,1.5V35h-5.9v-0.3l1-1.1l-5.7-9
	c-0.5,0-0.9,0.1-1.3,0.1h-4v9l1.2,1V35H85v-0.3l1.2-1V9.8l-1.2-1V8.4h8.2c5.2,0,10.7,2.2,10.7,8.1c0,3.8-3,6.3-6.6,7.4L103.2,33.2z
	 M89,24.1h4c4.8,0,7.9-2.9,7.9-7.6S98,8.9,93.2,8.9H89V24.1z M112.1,8.7l-1.2,1v23.9l1.2,1V35h-5.2v-0.3l1.2-1V9.8l-1.2-1V8.4h5.2
	V8.7z M131.7,30.8h0.3l-0.8,4.2h-16.8v-0.3l1.2-1V9.8l-1.2-1V8.4h16l0.8,4.1h-0.3l-2.7-3.7h-9.8v9.8h7.2l1.3-1.9h0.3v4.3h-0.3
	l-1.3-1.9h-7.2v15.4H129L131.7,30.8z M150.9,8.4h5.2v0.3l-2.4,1.5V35h-1.3l-16.1-24.5v22.7l2.4,1.5V35h-5.2v-0.3l2.4-1.5v-23
	L134,8.7V8.4h4.4l14.9,22.7V10.2l-2.4-1.5V8.4z M176.7,8.4l0.8,4.2h-0.3l-2.7-3.7h-5.7v24.8l1.2,1V35h-5.3v-0.3l1.2-1V8.9h-5.7
	l-2.7,3.7h-0.3l0.8-4.2H176.7z M196.7,30.8h0.3l-0.8,4.2h-16.8v-0.3l1.2-1V9.8l-1.2-1V8.4h16l0.8,4.1H196l-2.7-3.7h-9.8v9.8h7.2
	l1.3-1.9h0.3v4.3h-0.3l-1.3-1.9h-7.2v15.4H194L196.7,30.8z"/>
</svg>
