<?xml version="1.0" encoding="UTF-8"?><svg id="Layer_1" xmlns="http://www.w3.org/2000/svg" viewBox="0 0 286.61 45.95"><defs><style>.cls-1{fill:#b29220;stroke-width:0px;}</style></defs><path class="cls-1" d="m19.92,31.76l-.89,4.44H1.21v-.36l1.29-1.09V9.42l-1.29-1.09v-.36h5.57v.36l-1.29,1.09v26.29h11.17l2.9-3.95h.36Z"/><path class="cls-1" d="m40.65,31.76l-.89,4.44h-17.83v-.36l1.29-1.09V9.42l-1.29-1.09v-.36h17.02l.89,4.4h-.36l-2.86-3.91h-10.4v10.4h7.66l1.33-2.06h.36v4.6h-.36l-1.33-2.06h-7.66v16.37h11.21l2.86-3.95h.36Z"/><path class="cls-1" d="m68.03,35.83v.36h-6.73v-.36l1.49-1.13-3.71-9.64h-10.36l-3.55,9.2,2.06,1.57v.36h-5.36v-.36l2.82-1.65,8.91-23.23-1.17-2.98h3.23l10.28,26.5,2.1,1.37Zm-9.15-11.25l-5-12.95-5,12.95h10Z"/><path class="cls-1" d="m88.36,31.76l-.89,4.44h-17.83v-.36l1.29-1.09V9.42l-1.29-1.09v-.36h5.57v.36l-1.29,1.09v26.29h11.17l2.9-3.95h.36Z"/><path class="cls-1" d="m114.61,22.08c0,7.78-5.04,14.12-16.29,14.12h-7.94v-.36l1.29-1.09V9.42l-1.29-1.09v-.36h7.94c11.25,0,16.29,6.33,16.29,14.12Zm-3.23,0c0-8.27-4.76-13.63-13.07-13.63h-3.63v27.26h3.63c8.31,0,13.07-5.36,13.07-13.63Z"/><path class="cls-1" d="m139.17,35.83v.36h-6.73v-.36l1.49-1.13-3.71-9.64h-10.36l-3.55,9.2,2.06,1.57v.36h-5.36v-.36l2.82-1.65,8.91-23.23-1.17-2.98h3.23l10.28,26.5,2.1,1.37Zm-9.15-11.25l-5-12.95-5,12.95h10Z"/><path class="cls-1" d="m165.02,22.08c0,7.78-5.04,14.12-16.29,14.12h-7.94v-.36l1.29-1.09V9.42l-1.29-1.09v-.36h7.94c11.25,0,16.29,6.33,16.29,14.12Zm-3.23,0c0-8.27-4.76-13.63-13.07-13.63h-3.63v27.26h3.63c8.31,0,13.07-5.36,13.07-13.63Z"/><path class="cls-1" d="m186.16,31.76l-.89,4.44h-17.83v-.36l1.29-1.09V9.42l-1.29-1.09v-.36h17.02l.89,4.4h-.36l-2.86-3.91h-10.41v10.4h7.66l1.33-2.06h.36v4.6h-.36l-1.33-2.06h-7.66v16.37h11.21l2.86-3.95h.36Z"/></svg>