<?xml version="1.0" encoding="utf-8"?>
<!-- Generator: Adobe Illustrator 28.0.0, SVG Export Plug-In . SVG Version: 6.00 Build 0)  -->
<svg version="1.1" id="logo-name" xmlns="http://www.w3.org/2000/svg" xmlns:xlink="http://www.w3.org/1999/xlink" x="0px" y="0px"
	 viewBox="0 0 1534.1 160.4" style="enable-background:new 0 0 1534.1 160.4;" xml:space="preserve">
<style type="text/css">
	.st0{fill:#122561;}
</style>
<g id="toledo">
	<path class="st0" d="M110.9,34.8H109L94.2,14.4h-31V150l6.7,5.6v1.9H41v-1.9l6.7-5.6V14.4h-31L1.9,34.8H0l4.6-22.9h101.7
		L110.9,34.8L110.9,34.8z"/>
	<path class="st0" d="M257.1,84.7c0,41-32.2,75.7-70.9,75.7s-70.9-34.7-70.9-75.7S147.5,9,186.2,9S257.1,43.5,257.1,84.7L257.1,84.7
		z M240,74.7c-6.2-37.8-32-67.8-65.5-61.6c-33.7,6.2-48.2,43.7-42,81.5c6.2,37.9,31.8,67.8,65.5,61.6
		C231.5,150,246.1,112.6,240,74.7L240,74.7z"/>
	<path class="st0" d="M368.5,134.6l-4.6,22.9H272v-1.9l6.7-5.6V19.4l-6.7-5.6v-1.9h28.7v1.9l-6.7,5.6V155h57.6l15-20.4H368.5
		L368.5,134.6z"/>
	<path class="st0" d="M476.2,134.6l-4.6,22.9h-91.9v-1.9l6.7-5.6V19.4l-6.7-5.6v-1.9h87.8l4.6,22.7h-1.9l-14.8-20.2h-53.7v53.7h39.5
		l6.9-10.6h1.9v23.7h-1.9l-6.9-10.6h-39.5V155h57.8l14.8-20.4H476.2L476.2,134.6z"/>
	<path class="st0" d="M612.3,84.7c0,40.1-26,72.8-84,72.8h-41v-1.9l6.7-5.6V19.4l-6.7-5.6v-1.9h41C586.3,11.9,612.3,44.6,612.3,84.7
		L612.3,84.7z M595.7,84.7c0-42.6-24.5-70.3-67.4-70.3h-18.7V155h18.7C571.1,155,595.7,127.4,595.7,84.7z"/>
	<path class="st0" d="M768.3,84.7c0,41-32.2,75.7-70.9,75.7s-70.9-34.7-70.9-75.7S658.7,9,697.4,9S768.3,43.5,768.3,84.7z
		 M751.3,74.7c-6.2-37.8-32-67.8-65.5-61.6c-33.7,6.2-48.2,43.7-42,81.5c6.2,37.9,31.8,67.8,65.5,61.6
		C742.8,150,757.3,112.6,751.3,74.7z"/>
</g>
<path id="e" class="st0" d="M892.7,74.8c-0.3-0.4-0.5-0.7-0.7-1.1c-3.9-5.8-7.3-11.9-9.9-18.4c-1.8-4.4-3.1-8.9-3.8-13.6
	c-0.4-2.5-0.5-5-0.4-7.5c0.4-7.8,3-14.8,8-20.9c3.1-3.7,6.6-6.8,10.8-9.1c3.7-2,7.5-3.3,11.7-4c2.6-0.4,5.1-0.6,7.7-0.4
	c7.2,0.5,13.7,2.7,19.3,7.4c3.8,3.2,6.6,7.1,8.4,11.7c1,2.5,1.5,5.1,1.6,7.8c0.1,2.4,0,4.9-0.4,7.3c-0.5,2.8-1.4,5.4-2.7,7.9
	c-2.3,4.5-5.3,8.3-8.9,11.8c-3.7,3.5-7.6,6.5-11.9,9.2c-3.5,2.2-7,4.3-10.6,6.2c-0.3,0.2-0.6,0.3-0.9,0.5c0.1,0.5,0.4,0.7,0.6,1
	c2.4,2.9,4.8,5.8,7.3,8.7c6.5,7.4,13.3,14.6,20.2,21.6c7.3,7.4,14.8,14.7,22.5,21.8c0.3,0.3,0.6,0.5,0.8,0.8c0,0,0.1,0.1,0.2,0.1
	c0.1-0.1,0.3-0.3,0.4-0.4c2.5-4.7,4.4-9.6,5.1-14.8c0.3-2.6,0.3-5.2,0.1-7.8c-0.2-2.8-0.8-5.4-1.7-8c-2-5.6-5.4-10.2-10.3-13.6
	c-3.4-2.4-7.2-3.8-11.4-4.2c-0.2,0-0.4-0.1-0.6-0.1c0,0-0.1,0-0.2-0.1c-0.2-0.4-0.2-0.8,0-1.3c0.2,0,0.3-0.1,0.4-0.1
	c12.5,0,25,0,37.4,0c0.1,0,0.2,0.1,0.3,0.1c0,0.3,0,0.5,0,0.8c-0.4,4.9-0.9,9.8-1.9,14.6c-1.4,7.4-3.7,14.5-6.8,21.3
	c-2.3,5-4.9,9.8-8.2,14.3c-0.1,0.2-0.2,0.4-0.4,0.6c1.1,1.4,11.4,9.9,17.9,14.7c6.2,4.6,12.6,8.8,19.2,12.7c0.2,0.6,0.1,1.1,0,1.6
	c-0.3,0.3-0.7,0.2-1,0.2c-2,0-4,0-6-0.1c-3.6-0.1-7.2-0.1-10.8-0.2c-3.6-0.1-7.3-0.1-10.9-0.2c-0.3,0-0.5,0-0.8,0
	c-0.7,0-1.2-0.2-1.8-0.7c-5.5-4.5-10.9-8.9-16.4-13.4c-0.3-0.3-0.7-0.6-1.1-0.8c-0.4,0.1-0.6,0.4-0.9,0.7c-3.5,3-7.3,5.8-11.2,8.2
	c-7.2,4.3-14.9,7.2-23,8.9c-4.6,0.9-9.2,1.4-13.8,1.4c-9.2-0.1-18-2-26.2-6.3c-5.2-2.7-9.8-6.3-13.6-10.9c-3-3.6-5.3-7.5-6.7-11.9
	c-1.4-4.5-1.8-9.1-1.5-13.8c0.3-4,1.2-7.9,2.9-11.5c1.6-3.5,3.7-6.8,6.2-9.7c3-3.5,6.4-6.5,10.2-9.2c3.9-2.7,8-5.1,12.2-7.2
	c1.5-0.8,3.1-1.5,4.6-2.2C892,75.2,892.3,75,892.7,74.8L892.7,74.8z M894.7,77.1c-0.2,0.1-0.5,0.2-0.6,0.4c-0.7,0.5-1.5,1-2.2,1.6
	c-4.2,3.1-7.8,6.8-10.7,11.2c-3,4.6-4.6,9.6-5,15.1c-0.2,2.6-0.1,5.2,0.2,7.8c0.3,3,1,5.9,2,8.7c2.3,6.3,5.9,11.7,10.8,16.3
	c7.3,6.8,15.8,10.8,25.7,11.9c3.2,0.4,6.5,0.3,9.7-0.1c4.2-0.6,8.3-1.7,12.3-3.5c5-2.2,9.3-5.4,13.2-9.2c0.1-0.1,0.2-0.3,0.4-0.5
	c-0.7-0.8-1.5-1.4-2.2-2.1c-0.8-0.7-1.6-1.4-2.3-2.2c-0.8-0.7-1.5-1.4-2.3-2.1c-0.8-0.7-1.5-1.5-2.3-2.2s-1.5-1.4-2.2-2.1
	c-0.8-0.7-1.5-1.5-2.3-2.2c-0.7-0.7-1.5-1.4-2.2-2.2c-0.8-0.8-1.5-1.5-2.3-2.2c-0.7-0.7-1.5-1.5-2.2-2.2c-0.8-0.8-1.5-1.5-2.2-2.3
	c-0.7-0.7-1.4-1.5-2.2-2.2c-0.7-0.8-1.5-1.5-2.2-2.3s-1.4-1.5-2.1-2.2s-1.4-1.5-2.1-2.3c-0.7-0.8-1.5-1.6-2.2-2.3
	c-0.7-0.8-1.4-1.5-2.1-2.3c-0.7-0.8-1.4-1.6-2.1-2.4c-0.7-0.8-1.4-1.5-2-2.3c-0.7-0.8-1.4-1.6-2.1-2.4c-0.7-0.8-1.3-1.6-2-2.3
	c-0.7-0.8-1.4-1.6-2.1-2.4c-0.7-0.8-1.3-1.6-2-2.4s-1.3-1.7-2-2.5s-1.3-1.6-1.9-2.4c-0.7-0.8-1.3-1.7-2-2.5
	C896,78.7,895.5,77.9,894.7,77.1L894.7,77.1z M908.3,67.5c0.3-0.2,0.6-0.3,0.8-0.4c1.9-1.1,3.7-2.2,5.4-3.5c2.6-1.9,5-4.1,7.1-6.6
	c3.9-4.5,6.5-9.7,7.8-15.5c0.6-2.5,0.9-5.1,1-7.7c0.2-2.8,0.1-5.6-0.2-8.4c-0.6-4.4-2.1-8.5-4.6-12.1c-2.6-3.8-5.9-6.6-10.2-8.2
	c-4-1.5-8.1-2-12.2-0.9c-4.4,1.1-7.9,3.5-10.4,7.3c-2.1,3.1-3.1,6.6-3.3,10.4c-0.1,4,0.4,8,1.3,11.8c1.3,5.3,3.3,10.4,5.8,15.3
	c3.2,6.3,7,12.2,11.1,17.9C907.9,67,908.1,67.2,908.3,67.5L908.3,67.5z"/>
<g id="lima">
	<path class="st0" d="M1183,135.6l-4.6,22.9h-91.9v-1.9l6.7-5.6V20.4l-6.7-5.6v-1.9h28.7v1.9l-6.7,5.6V156h57.6l15-20.4H1183
		L1183,135.6z"/>
	<path class="st0" d="M1216.2,20.4V151l6.7,5.6v1.9h-28.7v-1.9l6.4-5.6V20.4l-6.4-5.6v-1.9h28.7v1.9L1216.2,20.4z"/>
	<path class="st0" d="M1380.1,20.4V151l6.7,5.6v1.9h-28.7v-1.9l6.7-5.6V20l-52.6,138.5h-5.4l-54.7-131v121.1l13.1,8.1v1.9h-28.7
		v-1.9l13.1-8.1V22.8l-10.6-8.1v-1.9h23.7l53.7,127.9l48.5-127.9h22.1v1.9L1380.1,20.4L1380.1,20.4z"/>
	<path class="st0" d="M1534.1,156.6v1.9h-34.7v-1.9l7.7-5.8L1488,101h-53.4l-18.3,47.4l10.6,8.1v1.9h-27.7v-1.9l14.6-8.5l46-119.8
		l-6-15.4h16.6l53,136.6L1534.1,156.6L1534.1,156.6z M1486.9,98.6l-25.8-66.8l-25.8,66.8H1486.9L1486.9,98.6z"/>
</g>
</svg>
