<?xml version="1.0" encoding="utf-8"?>
<!-- Generator: Adobe Illustrator 28.0.0, SVG Export Plug-In . SVG Version: 6.00 Build 0)  -->
<svg version="1.1" id="Layer_1" xmlns="http://www.w3.org/2000/svg" xmlns:xlink="http://www.w3.org/1999/xlink" x="0px" y="0px"
	 viewBox="0 0 275 35" style="enable-background:new 0 0 275 35;" xml:space="preserve">
<style type="text/css">
	.st0{fill:#B29220;}
</style>
<path class="st0" d="M8.2,7.9c5.2,0,10.7,2.2,10.7,8.1s-5.4,8.1-10.7,8.1H4v9l1.2,1v0.3H0v-0.3l1.2-1V9.2L0,8.2V7.9H8.2z M8.2,23.6
	c4.8,0,7.6-2.9,7.6-7.6S13,8.3,8.2,8.3H4v15.3H8.2z M39.3,32.6l1.8,1.5v0.3h-5.9v-0.3l1-1.1l-5.7-9c-0.5,0-0.9,0.1-1.3,0.1h-4v9
	l1.2,1v0.3h-5.2v-0.3l1.2-1V9.2l-1.2-1V7.9h8.2C34.6,7.9,40,10.1,40,16c0,3.8-3,6.3-6.6,7.4L39.3,32.6z M25.2,23.6h4
	c4.8,0,7.9-2.9,7.9-7.6s-2.9-7.6-7.6-7.6h-4.2V23.6z M55.2,7.3c7.1,0,13,6.3,13,13.8c0,7.5-5.9,13.8-13,13.8s-13-6.3-13-13.8
	C42.3,13.6,48.2,7.3,55.2,7.3z M57.4,34.2c6.1-1.1,8.8-8,7.7-14.9c-1.1-6.9-5.9-12.4-12-11.2c-6.2,1.1-8.8,8-7.7,14.9
	S51.2,35.4,57.4,34.2z M86.3,7.9l0.8,4.1h-0.3L84,8.3h-9.5v9.8h7.1l1.3-1.9h0.3v4.3h-0.3l-1.3-1.9h-7.1v14.5l1.2,1v0.3h-5.2v-0.3
	l1.2-1V9.2l-1.2-1V7.9H86.3z M94.3,8.2l-1.2,1v23.9l1.2,1v0.3H89v-0.3l1.2-1V9.2l-1.2-1V7.9h5.2V8.2z M104.3,7.8
	c-2.5,0-5.4,1.3-5.3,4.4c0,3.6,3.2,4.9,6,6.4c4.4,2.3,9.3,3.9,9.3,9.2c0,4.9-4.6,7.1-9.4,7.1c-4.2,0-6.4-0.9-8.1-1.5l-1.1-4.1h0.3
	c2.8,4,5.3,5.1,9.7,5.1c3.2,0,6.1-1.8,6.1-5.5c0-4.3-4-5.5-7.9-7.5c-3.2-1.6-7.3-3.7-7.3-7.9c0-4.8,4.9-6.3,8.1-6.3
	c2.1,0,4.8,0.4,7.3,0.8l1.1,4.1h-0.3C110.4,9,108.6,7.8,104.3,7.8z M124.4,7.8c-2.5,0-5.4,1.3-5.3,4.4c0,3.6,3.2,4.9,6,6.4
	c4.4,2.3,9.3,3.9,9.3,9.2c0,4.9-4.6,7.1-9.4,7.1c-4.2,0-6.4-0.9-8.1-1.5l-1.1-4.1h0.3c2.8,4,5.3,5.1,9.7,5.1c3.2,0,6.1-1.8,6.1-5.5
	c0-4.3-4-5.5-7.9-7.5c-3.2-1.6-7.3-3.7-7.3-7.9c0-4.8,4.9-6.3,8.1-6.3c2.1,0,4.8,0.4,7.3,0.8l1.1,4.1h-0.3
	C130.5,9,128.7,7.8,124.4,7.8z M142,8.2l-1.2,1v23.9l1.2,1v0.3h-5.2v-0.3l1.2-1V9.2l-1.2-1V7.9h5.2V8.2z M157.2,7.3
	c7.1,0,13,6.3,13,13.8c0,7.5-5.9,13.8-13,13.8c-7.1,0-13-6.3-13-13.8C144.2,13.6,150.1,7.3,157.2,7.3z M159.4,34.2
	c6.1-1.1,8.8-8,7.7-14.9c-1.1-6.9-5.9-12.4-12-11.2c-6.2,1.1-8.8,8-7.7,14.9S153.2,35.4,159.4,34.2z M189,7.9h5.2v0.3l-2.4,1.5v24.8
	h-1.3L174.5,10v22.7l2.4,1.5v0.3h-5.2v-0.3l2.4-1.5v-23l-1.9-1.5V7.9h4.4l14.9,22.7V9.7L189,8.2V7.9z M216.6,32.8l2,1.3v0.3h-6.3
	v-0.3l1.4-1.1l-3.5-9.1h-9.8l-3.3,8.7l1.9,1.5v0.3h-5.1v-0.3l2.7-1.6l8.4-21.9l-1.1-2.8h3L216.6,32.8z M200.5,23.5h9.4l-4.7-12.2
	L200.5,23.5z M237.3,30.3h0.3l-0.8,4.2h-16.8v-0.3l1.2-1V9.2l-1.2-1V7.9h5.2v0.3l-1.2,1V34h10.5L237.3,30.3z"/>
</svg>
