<?xml version="1.0" encoding="utf-8" standalone="no"?><!-- Generator: Adobe Illustrator 15.1.0, SVG Export Plug-In . SVG Version: 6.00 Build 0)  --><svg xmlns="http://www.w3.org/2000/svg" xmlns:xlink="http://www.w3.org/1999/xlink" enable-background="new 0 0 500.002 508.491" fill="#000000" height="508.491px" id="Layer_1" version="1.1" viewBox="0 0 500.002 508.491" width="500.002px" x="0px" xml:space="preserve" y="0px">
<g id="change1">
	<path d="M473.01,359.842c-15.878-10.084-37.902-19.466-61.982-26.439c-23.855-6.91-47.322-10.711-66.085-10.711   c-25.386,0-40.323,6.974-44.45,20.908c-0.012,0.037-1.617,5.707-3.649,12.504c-0.101,0.364-0.213,0.79-0.301,1.216l-4.465,15.465   c-5.118-1.455-9.733-4.214-13.471-8.127L144.054,224.825c-5.374-5.601-8.24-13.069-8.221-20.927   c0.921-0.27,1.862-0.552,2.834-0.847c4.998,0.539,9.558-0.364,12.862-2.314l19.641-10.831c5.268-2.94,9.651-5.368,10.103-5.631   c0.496-0.207,0.985-0.445,1.455-0.709c26.013-14.499,8.315-68.279-14.749-109.926C161.174,61.344,125.586,0,93.697,0   c-4.001,0-7.732,0.929-11.1,2.76c-0.182,0.1-0.364,0.207-0.54,0.313L71.247,9.056C70.87,9.25,70.444,9.507,70.03,9.771   c-16.01,8.805-27.624,18.287-39.959,32.616c-8.027,9.318-14.612,19.421-19.572,30.026C0.421,93.935-2.52,117.125,2.189,137.845   C8.73,200.18,58.152,283.372,137.946,366.326c74.996,77.975,162.559,131.957,228.53,140.874c6.447,0.866,12.417,1.292,18.236,1.292   c20.056,0,37.853-5.242,54.408-16.054c25.837-16.844,43.02-40.637,55.649-76.997c0.188-0.514,0.39-1.179,0.564-1.869l1.856-6.384   c0.815-2.772,1.404-4.816,1.43-4.954c0.163-0.427,0.313-0.854,0.439-1.292C503.062,387.171,494.294,373.337,473.01,359.842z" fill="#ffffff"/>
</g>
</svg>