<?xml version="1.0" encoding="UTF-8"?><svg id="Layer_1" xmlns="http://www.w3.org/2000/svg" viewBox="0 0 456.4 456.3"><defs><style>.cls-1{fill-rule:evenodd;}.cls-1,.cls-2{fill:#fff;stroke-width:0px;}</style></defs><path class="cls-2" d="M389.12,66.34C346.42,23.61,289.64.07,229.15.04,104.5.04,3.06,101.45,3.01,226.1c-.05,39.67,10.36,78.65,30.18,113.02L1.11,456.26l119.88-31.44c33.03,18.01,70.22,27.5,108.06,27.52h.1c124.63,0,226.09-101.43,226.14-226.07.02-60.41-23.47-117.21-66.17-159.94ZM229.15,414.16h-.07c-33.73-.02-66.81-9.08-95.67-26.2l-6.87-4.07-71.14,18.65,18.99-69.34-4.47-7.11c-18.82-29.95-28.79-64.62-28.73-100,.04-103.6,84.35-187.88,188.03-187.88h0c49.88-.12,97.73,19.73,132.88,55.1,35.35,35.19,55.16,83.05,55,132.93-.04,103.6-84.36,187.9-187.95,187.9Z"/><path class="cls-1" d="M172.63,131.59c-4.24-9.41-8.69-9.6-12.72-9.76l-10.83-.13c-3.77,0-9.89,1.41-15.07,7.07s-19.78,19.32-19.78,47.12,20.25,54.66,23.07,58.44,39.09,62.64,96.52,85.29c47.73,18.82,57.44,15.08,67.8,14.14,10.36-.94,33.43-13.67,38.14-26.86s4.71-24.5,3.3-26.86c-1.41-2.36-5.18-3.77-10.83-6.6-5.66-2.83-33.43-16.5-38.61-18.38s-8.94-2.82-12.72,2.83c-3.77,5.66-14.59,18.38-17.88,22.15s-6.59,4.24-12.24,1.42-23.85-8.79-45.44-28.04c-16.8-14.98-28.13-33.47-31.44-39.13-3.3-5.65-.35-8.71,2.48-11.53,2.54-2.53,5.65-6.6,8.48-9.9s3.76-5.66,5.64-9.42.94-7.07-.47-9.9-12.39-30.77-17.41-41.94"/></svg>